# MagicaVoxel @ Ephtracy

# group
o 

# material
mtllib Lucas-3.mtl
usemtl palette

# normals
vn -1 0 0
vn 1 0 0
vn 0 0 1
vn 0 0 -1
vn 0 -1 0
vn 0 1 0

# texcoords
vt 0.236328 0.5
vt 0.275391 0.5
vt 0.759766 0.5
vt 0.775391 0.5
vt 0.912109 0.5
vt 0.994141 0.5

# verts
v -0.4 1.5 0.1
v -0.4 1.5 -0.6
v -0.4 1.6 0.1
v -0.4 1.6 -0.6
v -0.3 0 0.5
v -0.3 0 -0.7
v -0.3 0.1 0.6
v -0.3 0.1 0.5
v -0.3 0.1 0.4
v -0.3 0.1 -0.2
v -0.3 0.2 0.4
v -0.3 0.2 -0.2
v -0.3 0.2 -0.5
v -0.3 0.3 -0.2
v -0.3 0.3 -0.5
v -0.3 0.3 -0.6
v -0.3 0.3 -0.7
v -0.3 0.4 0.6
v -0.3 0.4 0.4
v -0.3 0.5 0.4
v -0.3 0.5 0.1
v -0.3 0.5 -0.5
v -0.3 0.5 -0.6
v -0.3 1.5 0.2
v -0.3 1.5 0.1
v -0.3 1.5 -0.5
v -0.3 1.6 0.2
v -0.3 1.6 0.1
v -0.3 1.6 -0.5
v -0.3 2.3 0.1
v -0.3 2.3 -0.5
v -0.2 0 0.7
v -0.2 0 0.5
v -0.2 0.1 0.6
v -0.2 0.1 0.5
v -0.2 0.3 0.7
v -0.2 0.3 0.6
v -0.2 0.4 0.5
v -0.2 0.4 0.4
v -0.2 0.5 0.5
v -0.2 0.5 0.4
v -0.2 1.4 0.2
v -0.2 1.4 0.1
v -0.2 1.5 0.2
v -0.2 1.5 0.1
v -0.2 1.6 0.2
v -0.2 1.6 0.1
v -0.2 1.7 0.2
v -0.2 1.7 0.1
v -0.1 1.3 0.2
v -0.1 1.3 0.1
v -0.1 1.4 0.2
v -0.1 1.4 0.1
v 0.3 1.3 0.2
v 0.3 1.3 0.1
v 0.3 1.4 0.2
v 0.3 1.4 0.1
v 0.4 0 0.7
v 0.4 0 0.5
v 0.4 0.1 0.6
v 0.4 0.1 0.5
v 0.4 0.3 0.7
v 0.4 0.3 0.6
v 0.4 0.4 0.5
v 0.4 0.4 0.4
v 0.4 0.5 0.5
v 0.4 0.5 0.4
v 0.4 1.4 0.2
v 0.4 1.4 0.1
v 0.4 1.5 0.2
v 0.4 1.5 0.1
v 0.4 1.6 0.2
v 0.4 1.6 0.1
v 0.4 1.7 0.2
v 0.4 1.7 0.1
v 0.5 0 0.5
v 0.5 0 -0.7
v 0.5 0.1 0.6
v 0.5 0.1 0.5
v 0.5 0.3 -0.6
v 0.5 0.3 -0.7
v 0.5 0.4 0.6
v 0.5 0.4 0.4
v 0.5 0.5 0.4
v 0.5 0.5 0.1
v 0.5 0.5 -0.5
v 0.5 0.5 -0.6
v 0.5 1.5 0.1
v 0.5 1.5 -0.5
v 0.5 1.6 0.1
v 0.5 1.6 -0.5
v 0.5 2.3 0.1
v 0.5 2.3 -0.5
v 0.6 1.5 0.2
v 0.6 1.5 -0.6
v 0.6 1.6 0.2
v 0.6 1.6 -0.6
v -0.2 0 0.7
v -0.2 0.3 0.7
v 0.4 0 0.7
v 0.4 0.3 0.7
v -0.3 0.1 0.6
v -0.3 0.4 0.6
v -0.2 0.1 0.6
v -0.2 0.3 0.6
v 0 0.3 0.6
v 0 0.4 0.6
v 0.2 0.3 0.6
v 0.2 0.4 0.6
v 0.4 0.1 0.6
v 0.4 0.3 0.6
v 0.5 0.1 0.6
v 0.5 0.4 0.6
v -0.3 0 0.5
v -0.3 0.1 0.5
v -0.2 0 0.5
v -0.2 0.1 0.5
v -0.2 0.4 0.5
v -0.2 0.5 0.5
v 0 0.4 0.5
v 0 0.5 0.5
v 0.2 0.4 0.5
v 0.2 0.5 0.5
v 0.4 0 0.5
v 0.4 0.1 0.5
v 0.4 0.4 0.5
v 0.4 0.5 0.5
v 0.5 0 0.5
v 0.5 0.1 0.5
v -0.3 0.4 0.4
v -0.3 0.5 0.4
v -0.2 0.4 0.4
v -0.2 0.5 0.4
v 0.4 0.4 0.4
v 0.4 0.5 0.4
v 0.5 0.4 0.4
v 0.5 0.5 0.4
v -0.3 1.5 0.2
v -0.3 1.6 0.2
v -0.2 1.4 0.2
v -0.2 1.5 0.2
v -0.2 1.6 0.2
v -0.2 1.7 0.2
v -0.1 1.3 0.2
v -0.1 1.4 0.2
v 0 1.3 0.2
v 0 1.7 0.2
v 0.2 1.3 0.2
v 0.2 1.7 0.2
v 0.3 1.3 0.2
v 0.3 1.4 0.2
v 0.4 1.4 0.2
v 0.4 1.5 0.2
v 0.4 1.6 0.2
v 0.4 1.7 0.2
v 0.6 1.5 0.2
v 0.6 1.6 0.2
v -0.4 1.5 0.1
v -0.4 1.6 0.1
v -0.3 0.5 0.1
v -0.3 1.5 0.1
v -0.3 1.6 0.1
v -0.3 2.3 0.1
v -0.2 1.4 0.1
v -0.2 1.5 0.1
v -0.2 1.6 0.1
v -0.2 1.7 0.1
v -0.1 1.3 0.1
v -0.1 1.4 0.1
v 0 0.5 0.1
v 0 1.3 0.1
v 0 1.7 0.1
v 0.2 0.5 0.1
v 0.2 1.3 0.1
v 0.2 1.7 0.1
v 0.3 1.3 0.1
v 0.3 1.4 0.1
v 0.4 1.4 0.1
v 0.4 1.5 0.1
v 0.4 1.6 0.1
v 0.4 1.7 0.1
v 0.5 0.5 0.1
v 0.5 1.5 0.1
v 0.5 1.6 0.1
v 0.5 2.3 0.1
v -0.3 0.5 -0.5
v -0.3 1.5 -0.5
v -0.3 1.6 -0.5
v -0.3 2.3 -0.5
v 0 0.5 -0.5
v 0 1.5 -0.5
v 0 1.6 -0.5
v 0.2 0.5 -0.5
v 0.2 1.5 -0.5
v 0.2 1.6 -0.5
v 0.5 0.5 -0.5
v 0.5 1.5 -0.5
v 0.5 1.6 -0.5
v 0.5 2.3 -0.5
v -0.4 1.5 -0.6
v -0.4 1.6 -0.6
v -0.3 0.3 -0.6
v -0.3 0.5 -0.6
v 0 0.3 -0.6
v 0 0.5 -0.6
v 0 1.5 -0.6
v 0 1.6 -0.6
v 0.2 0.3 -0.6
v 0.2 0.5 -0.6
v 0.2 1.5 -0.6
v 0.2 1.6 -0.6
v 0.5 0.3 -0.6
v 0.5 0.5 -0.6
v 0.6 1.5 -0.6
v 0.6 1.6 -0.6
v -0.3 0 -0.7
v -0.3 0.3 -0.7
v 0 0.2 -0.7
v 0 0.3 -0.7
v 0.2 0.2 -0.7
v 0.2 0.3 -0.7
v 0.5 0 -0.7
v 0.5 0.3 -0.7
v -0.2 0 0.7
v 0.4 0 0.7
v -0.3 0 0.5
v -0.2 0 0.5
v 0.4 0 0.5
v 0.5 0 0.5
v -0.3 0 -0.7
v 0.5 0 -0.7
v -0.3 0.1 0.6
v -0.2 0.1 0.6
v 0.4 0.1 0.6
v 0.5 0.1 0.6
v -0.3 0.1 0.5
v -0.2 0.1 0.5
v 0.4 0.1 0.5
v 0.5 0.1 0.5
v -0.1 1.3 0.2
v 0 1.3 0.2
v 0.2 1.3 0.2
v 0.3 1.3 0.2
v -0.1 1.3 0.1
v 0 1.3 0.1
v 0.2 1.3 0.1
v 0.3 1.3 0.1
v -0.2 1.4 0.2
v -0.1 1.4 0.2
v 0.3 1.4 0.2
v 0.4 1.4 0.2
v -0.2 1.4 0.1
v -0.1 1.4 0.1
v 0.3 1.4 0.1
v 0.4 1.4 0.1
v -0.3 1.5 0.2
v -0.2 1.5 0.2
v 0.4 1.5 0.2
v 0.6 1.5 0.2
v -0.4 1.5 0.1
v -0.3 1.5 0.1
v -0.2 1.5 0.1
v 0.4 1.5 0.1
v 0.5 1.5 0.1
v -0.3 1.5 -0.5
v 0 1.5 -0.5
v 0.2 1.5 -0.5
v 0.5 1.5 -0.5
v -0.4 1.5 -0.6
v 0 1.5 -0.6
v 0.2 1.5 -0.6
v 0.6 1.5 -0.6
v -0.2 0.3 0.7
v 0.4 0.3 0.7
v -0.2 0.3 0.6
v 0 0.3 0.6
v 0.2 0.3 0.6
v 0.4 0.3 0.6
v -0.3 0.3 -0.6
v 0 0.3 -0.6
v 0.2 0.3 -0.6
v 0.5 0.3 -0.6
v -0.3 0.3 -0.7
v 0 0.3 -0.7
v 0.2 0.3 -0.7
v 0.5 0.3 -0.7
v -0.3 0.4 0.6
v 0 0.4 0.6
v 0.2 0.4 0.6
v 0.5 0.4 0.6
v -0.2 0.4 0.5
v 0 0.4 0.5
v 0.2 0.4 0.5
v 0.4 0.4 0.5
v -0.3 0.4 0.4
v -0.2 0.4 0.4
v 0.4 0.4 0.4
v 0.5 0.4 0.4
v -0.2 0.5 0.5
v 0 0.5 0.5
v 0.2 0.5 0.5
v 0.4 0.5 0.5
v -0.3 0.5 0.4
v -0.2 0.5 0.4
v 0.4 0.5 0.4
v 0.5 0.5 0.4
v -0.3 0.5 0.1
v 0 0.5 0.1
v 0.2 0.5 0.1
v 0.5 0.5 0.1
v -0.3 0.5 -0.5
v 0 0.5 -0.5
v 0.2 0.5 -0.5
v 0.5 0.5 -0.5
v -0.3 0.5 -0.6
v 0 0.5 -0.6
v 0.2 0.5 -0.6
v 0.5 0.5 -0.6
v -0.3 1.6 0.2
v -0.2 1.6 0.2
v 0.4 1.6 0.2
v 0.6 1.6 0.2
v -0.4 1.6 0.1
v -0.3 1.6 0.1
v -0.2 1.6 0.1
v 0.4 1.6 0.1
v 0.5 1.6 0.1
v -0.3 1.6 -0.5
v 0 1.6 -0.5
v 0.2 1.6 -0.5
v 0.5 1.6 -0.5
v -0.4 1.6 -0.6
v 0 1.6 -0.6
v 0.2 1.6 -0.6
v 0.6 1.6 -0.6
v -0.2 1.7 0.2
v 0 1.7 0.2
v 0.2 1.7 0.2
v 0.4 1.7 0.2
v -0.2 1.7 0.1
v 0 1.7 0.1
v 0.2 1.7 0.1
v 0.4 1.7 0.1
v -0.3 2.3 0.1
v 0.5 2.3 0.1
v -0.3 2.3 -0.5
v 0.5 2.3 -0.5

# faces
f 3/6/1 2/6/1 1/6/1
f 4/6/1 2/6/1 3/6/1
f 8/3/1 6/3/1 5/3/1
f 9/3/1 6/3/1 8/3/1
f 10/3/1 6/3/1 9/3/1
f 11/3/1 8/3/1 7/3/1
f 11/3/1 9/3/1 8/3/1
f 11/5/1 10/5/1 9/5/1
f 12/3/1 6/3/1 10/3/1
f 12/5/1 10/5/1 11/5/1
f 13/3/1 6/3/1 12/3/1
f 14/3/1 12/3/1 11/3/1
f 14/5/1 13/5/1 12/5/1
f 15/3/1 6/3/1 13/3/1
f 15/5/1 13/5/1 14/5/1
f 16/3/1 6/3/1 15/3/1
f 17/3/1 6/3/1 16/3/1
f 18/3/1 11/3/1 7/3/1
f 18/3/1 14/3/1 11/3/1
f 18/3/1 16/3/1 15/3/1
f 18/3/1 15/3/1 14/3/1
f 19/3/1 16/3/1 18/3/1
f 20/3/1 16/3/1 19/3/1
f 21/3/1 16/3/1 20/3/1
f 22/3/1 16/3/1 21/3/1
f 23/3/1 16/3/1 22/3/1
f 25/2/1 22/2/1 21/2/1
f 26/2/1 22/2/1 25/2/1
f 27/6/1 25/6/1 24/6/1
f 28/6/1 25/6/1 27/6/1
f 30/4/1 29/4/1 28/4/1
f 31/4/1 29/4/1 30/4/1
f 34/3/1 33/3/1 32/3/1
f 35/3/1 33/3/1 34/3/1
f 36/3/1 34/3/1 32/3/1
f 37/3/1 34/3/1 36/3/1
f 40/3/1 39/3/1 38/3/1
f 41/3/1 39/3/1 40/3/1
f 44/6/1 43/6/1 42/6/1
f 45/6/1 43/6/1 44/6/1
f 48/6/1 47/6/1 46/6/1
f 49/6/1 47/6/1 48/6/1
f 52/6/1 51/6/1 50/6/1
f 53/6/1 51/6/1 52/6/1
f 54/6/2 55/6/2 56/6/2
f 56/6/2 55/6/2 57/6/2
f 58/3/2 59/3/2 60/3/2
f 60/3/2 59/3/2 61/3/2
f 58/3/2 60/3/2 62/3/2
f 62/3/2 60/3/2 63/3/2
f 64/3/2 65/3/2 66/3/2
f 66/3/2 65/3/2 67/3/2
f 68/6/2 69/6/2 70/6/2
f 70/6/2 69/6/2 71/6/2
f 72/6/2 73/6/2 74/6/2
f 74/6/2 73/6/2 75/6/2
f 76/3/2 77/3/2 79/3/2
f 79/3/2 77/3/2 80/3/2
f 78/3/2 79/3/2 80/3/2
f 80/3/2 77/3/2 81/3/2
f 78/3/2 80/3/2 82/3/2
f 82/3/2 80/3/2 83/3/2
f 83/3/2 80/3/2 84/3/2
f 84/3/2 80/3/2 85/3/2
f 85/3/2 80/3/2 86/3/2
f 86/3/2 80/3/2 87/3/2
f 85/2/2 86/2/2 88/2/2
f 88/2/2 86/2/2 89/2/2
f 90/4/2 91/4/2 92/4/2
f 92/4/2 91/4/2 93/4/2
f 94/6/2 95/6/2 96/6/2
f 96/6/2 95/6/2 97/6/2
f 100/3/3 99/3/3 98/3/3
f 101/3/3 99/3/3 100/3/3
f 104/3/3 103/3/3 102/3/3
f 105/3/3 103/3/3 104/3/3
f 106/3/3 103/3/3 105/3/3
f 107/3/3 103/3/3 106/3/3
f 108/5/3 107/5/3 106/5/3
f 109/5/3 107/5/3 108/5/3
f 111/3/3 109/3/3 108/3/3
f 112/3/3 111/3/3 110/3/3
f 113/3/3 109/3/3 111/3/3
f 113/3/3 111/3/3 112/3/3
f 116/3/3 115/3/3 114/3/3
f 117/3/3 115/3/3 116/3/3
f 120/3/3 119/3/3 118/3/3
f 121/3/3 119/3/3 120/3/3
f 122/5/3 121/5/3 120/5/3
f 123/5/3 121/5/3 122/5/3
f 126/3/3 123/3/3 122/3/3
f 127/3/3 123/3/3 126/3/3
f 128/3/3 125/3/3 124/3/3
f 129/3/3 125/3/3 128/3/3
f 132/3/3 131/3/3 130/3/3
f 133/3/3 131/3/3 132/3/3
f 136/3/3 135/3/3 134/3/3
f 137/3/3 135/3/3 136/3/3
f 141/6/3 139/6/3 138/6/3
f 142/6/3 139/6/3 141/6/3
f 145/6/3 141/6/3 140/6/3
f 145/6/3 143/6/3 142/6/3
f 145/6/3 142/6/3 141/6/3
f 146/6/3 145/6/3 144/6/3
f 147/6/3 143/6/3 145/6/3
f 147/6/3 145/6/3 146/6/3
f 148/5/3 147/5/3 146/5/3
f 149/5/3 147/5/3 148/5/3
f 150/6/3 149/6/3 148/6/3
f 151/6/3 149/6/3 150/6/3
f 152/6/3 149/6/3 151/6/3
f 153/6/3 149/6/3 152/6/3
f 154/6/3 149/6/3 153/6/3
f 155/6/3 149/6/3 154/6/3
f 156/6/3 154/6/3 153/6/3
f 157/6/3 154/6/3 156/6/3
f 161/6/3 159/6/3 158/6/3
f 162/6/3 159/6/3 161/6/3
f 164/2/3 161/2/3 160/2/3
f 165/2/3 161/2/3 164/2/3
f 166/4/3 163/4/3 162/4/3
f 167/4/3 163/4/3 166/4/3
f 168/2/3 164/2/3 160/2/3
f 169/2/3 164/2/3 168/2/3
f 170/2/3 168/2/3 160/2/3
f 171/2/3 168/2/3 170/2/3
f 172/4/3 163/4/3 167/4/3
f 173/2/3 171/2/3 170/2/3
f 174/2/3 171/2/3 173/2/3
f 175/4/3 163/4/3 172/4/3
f 176/2/3 174/2/3 173/2/3
f 178/2/3 177/2/3 176/2/3
f 181/4/3 163/4/3 175/4/3
f 182/2/3 179/2/3 178/2/3
f 182/2/3 176/2/3 173/2/3
f 182/2/3 178/2/3 176/2/3
f 183/2/3 179/2/3 182/2/3
f 184/4/3 181/4/3 180/4/3
f 185/4/3 163/4/3 181/4/3
f 185/4/3 181/4/3 184/4/3
f 186/2/4 187/2/4 190/2/4
f 190/2/4 187/2/4 191/2/4
f 188/4/4 189/4/4 192/4/4
f 190/2/4 191/2/4 193/2/4
f 193/2/4 191/2/4 194/2/4
f 192/4/4 189/4/4 195/4/4
f 193/2/4 194/2/4 196/2/4
f 196/2/4 194/2/4 197/2/4
f 195/4/4 189/4/4 198/4/4
f 198/4/4 189/4/4 199/4/4
f 202/3/4 203/3/4 204/3/4
f 204/3/4 203/3/4 205/3/4
f 200/6/4 201/6/4 206/6/4
f 206/6/4 201/6/4 207/6/4
f 204/5/4 205/5/4 208/5/4
f 208/5/4 205/5/4 209/5/4
f 206/5/4 207/5/4 210/5/4
f 210/5/4 207/5/4 211/5/4
f 208/3/4 209/3/4 212/3/4
f 212/3/4 209/3/4 213/3/4
f 210/6/4 211/6/4 214/6/4
f 214/6/4 211/6/4 215/6/4
f 216/3/4 217/3/4 218/3/4
f 218/3/4 217/3/4 219/3/4
f 216/3/4 218/3/4 220/3/4
f 218/5/4 219/5/4 220/5/4
f 220/5/4 219/5/4 221/5/4
f 216/3/4 220/3/4 222/3/4
f 220/3/4 221/3/4 222/3/4
f 222/3/4 221/3/4 223/3/4
f 227/3/5 225/3/5 224/3/5
f 228/3/5 225/3/5 227/3/5
f 230/3/5 227/3/5 226/3/5
f 230/3/5 229/3/5 228/3/5
f 230/3/5 228/3/5 227/3/5
f 231/3/5 229/3/5 230/3/5
f 236/3/5 233/3/5 232/3/5
f 237/3/5 233/3/5 236/3/5
f 238/3/5 235/3/5 234/3/5
f 239/3/5 235/3/5 238/3/5
f 244/6/5 241/6/5 240/6/5
f 245/5/5 242/5/5 241/5/5
f 245/6/5 241/6/5 244/6/5
f 246/6/5 243/6/5 242/6/5
f 246/5/5 242/5/5 245/5/5
f 247/6/5 243/6/5 246/6/5
f 252/6/5 249/6/5 248/6/5
f 253/6/5 249/6/5 252/6/5
f 254/6/5 251/6/5 250/6/5
f 255/6/5 251/6/5 254/6/5
f 261/6/5 257/6/5 256/6/5
f 262/6/5 257/6/5 261/6/5
f 263/6/5 259/6/5 258/6/5
f 264/6/5 259/6/5 263/6/5
f 265/6/5 261/6/5 260/6/5
f 268/6/5 259/6/5 264/6/5
f 269/6/5 265/6/5 260/6/5
f 269/6/5 266/6/5 265/6/5
f 270/5/5 267/5/5 266/5/5
f 270/6/5 266/6/5 269/6/5
f 271/6/5 268/6/5 267/6/5
f 271/5/5 267/5/5 270/5/5
f 272/6/5 259/6/5 268/6/5
f 272/6/5 268/6/5 271/6/5
f 273/3/6 274/3/6 275/3/6
f 275/3/6 274/3/6 276/3/6
f 276/3/6 274/3/6 277/3/6
f 277/3/6 274/3/6 278/3/6
f 279/3/6 280/3/6 283/3/6
f 280/5/6 281/5/6 284/5/6
f 283/3/6 280/3/6 284/3/6
f 281/3/6 282/3/6 285/3/6
f 284/5/6 281/5/6 285/5/6
f 285/3/6 282/3/6 286/3/6
f 287/3/6 288/3/6 291/3/6
f 288/5/6 289/5/6 292/5/6
f 291/3/6 288/3/6 292/3/6
f 289/3/6 290/3/6 293/3/6
f 292/5/6 289/5/6 293/5/6
f 293/3/6 290/3/6 294/3/6
f 287/3/6 291/3/6 295/3/6
f 295/3/6 291/3/6 296/3/6
f 294/3/6 290/3/6 297/3/6
f 297/3/6 290/3/6 298/3/6
f 299/3/6 300/3/6 304/3/6
f 301/3/6 302/3/6 305/3/6
f 303/3/6 304/3/6 307/3/6
f 300/5/6 301/5/6 308/5/6
f 307/3/6 304/3/6 308/3/6
f 304/3/6 300/3/6 308/3/6
f 305/3/6 306/3/6 309/3/6
f 308/5/6 301/5/6 309/5/6
f 301/3/6 305/3/6 309/3/6
f 309/3/6 306/3/6 310/3/6
f 311/3/6 312/3/6 315/3/6
f 312/5/6 313/5/6 316/5/6
f 315/3/6 312/3/6 316/3/6
f 313/3/6 314/3/6 317/3/6
f 316/5/6 313/5/6 317/5/6
f 317/3/6 314/3/6 318/3/6
f 319/6/6 320/6/6 324/6/6
f 324/6/6 320/6/6 325/6/6
f 321/6/6 322/6/6 326/6/6
f 326/6/6 322/6/6 327/6/6
f 323/6/6 324/6/6 328/6/6
f 327/6/6 322/6/6 331/6/6
f 323/6/6 328/6/6 332/6/6
f 328/6/6 329/6/6 332/6/6
f 329/5/6 330/5/6 333/5/6
f 332/6/6 329/6/6 333/6/6
f 330/6/6 331/6/6 334/6/6
f 333/5/6 330/5/6 334/5/6
f 331/6/6 322/6/6 335/6/6
f 334/6/6 331/6/6 335/6/6
f 336/6/6 337/6/6 340/6/6
f 337/5/6 338/5/6 341/5/6
f 340/6/6 337/6/6 341/6/6
f 338/6/6 339/6/6 342/6/6
f 341/5/6 338/5/6 342/5/6
f 342/6/6 339/6/6 343/6/6
f 344/4/6 345/4/6 346/4/6
f 346/4/6 345/4/6 347/4/6
