# MagicaVoxel @ Ephtracy

# group
o 

# material
mtllib Lucas-4.mtl
usemtl palette

# normals
vn -1 0 0
vn 1 0 0
vn 0 0 1
vn 0 0 -1
vn 0 -1 0
vn 0 1 0

# texcoords
vt 0.775391 0.5
vt 0.791016 0.5
vt 0.912109 0.5
vt 0.958984 0.5
vt 0.974609 0.5
vt 0.986328 0.5
vt 0.994141 0.5

# verts
v -1 0.1 0.5
v -1 0.1 -0.5
v -1 2 0.2
v -1 2 -0.2
v -1 2.1 0.3
v -1 2.1 0.2
v -1 2.1 -0.2
v -1 2.1 -0.3
v -1 2.6 0.3
v -1 2.6 -0.3
v -1 2.7 0.5
v -1 2.7 -0.5
v -0.9 0 0.5
v -0.9 0 -0.5
v -0.9 0.1 0.5
v -0.9 0.1 -0.5
v -0.9 2.7 0.5
v -0.9 2.7 -0.5
v -0.9 2.8 0.5
v -0.9 2.8 -0.5
v 1.1 0 0.5
v 1.1 0 -0.5
v 1.1 0.1 0.5
v 1.1 0.1 -0.5
v 1.1 2.7 0.5
v 1.1 2.7 -0.5
v 1.1 2.8 0.5
v 1.1 2.8 -0.5
v 1.2 0.1 0.5
v 1.2 0.1 -0.5
v 1.2 2 0.2
v 1.2 2 -0.2
v 1.2 2.1 0.3
v 1.2 2.1 0.2
v 1.2 2.1 -0.2
v 1.2 2.1 -0.3
v 1.2 2.6 0.3
v 1.2 2.6 -0.3
v 1.2 2.7 0.5
v 1.2 2.7 -0.5
v -1 0.1 0.5
v -1 2.7 0.5
v -0.9 0 0.5
v -0.9 0.1 0.5
v -0.9 2.7 0.5
v -0.9 2.8 0.5
v -0.6 0.9 0.5
v -0.6 1.9 0.5
v -0.6 2.4 0.5
v -0.5 0.9 0.5
v -0.5 1.9 0.5
v -0.5 2 0.5
v -0.5 2.1 0.5
v -0.5 2.2 0.5
v -0.5 2.3 0.5
v -0.5 2.4 0.5
v -0.4 1.9 0.5
v -0.4 2 0.5
v -0.4 2.1 0.5
v -0.4 2.2 0.5
v -0.4 2.3 0.5
v -0.4 2.4 0.5
v -0.3 1.9 0.5
v -0.3 2 0.5
v -0.3 2.1 0.5
v -0.3 2.2 0.5
v -0.3 2.3 0.5
v -0.3 2.4 0.5
v -0.2 1.2 0.5
v -0.2 1.3 0.5
v -0.2 1.9 0.5
v -0.2 2 0.5
v -0.2 2.1 0.5
v -0.2 2.2 0.5
v -0.2 2.3 0.5
v -0.2 2.4 0.5
v -0.1 1.3 0.5
v -0.1 1.4 0.5
v -0.1 1.9 0.5
v -0.1 2 0.5
v -0.1 2.1 0.5
v -0.1 2.2 0.5
v -0.1 2.3 0.5
v -0.1 2.4 0.5
v 0 0.2 0.5
v 0 1.2 0.5
v 0 1.4 0.5
v 0 1.5 0.5
v 0 1.9 0.5
v 0 2 0.5
v 0 2.1 0.5
v 0 2.2 0.5
v 0 2.3 0.5
v 0 2.4 0.5
v 0.1 1.9 0.5
v 0.1 2 0.5
v 0.1 2.1 0.5
v 0.1 2.2 0.5
v 0.1 2.3 0.5
v 0.1 2.4 0.5
v 0.2 0.2 0.5
v 0.2 1.2 0.5
v 0.2 1.4 0.5
v 0.2 1.5 0.5
v 0.2 1.9 0.5
v 0.2 2 0.5
v 0.2 2.1 0.5
v 0.2 2.2 0.5
v 0.2 2.3 0.5
v 0.2 2.4 0.5
v 0.3 1.3 0.5
v 0.3 1.4 0.5
v 0.3 1.9 0.5
v 0.3 2 0.5
v 0.3 2.1 0.5
v 0.3 2.2 0.5
v 0.3 2.3 0.5
v 0.3 2.4 0.5
v 0.4 1.2 0.5
v 0.4 1.3 0.5
v 0.4 1.9 0.5
v 0.4 2 0.5
v 0.4 2.1 0.5
v 0.4 2.2 0.5
v 0.4 2.3 0.5
v 0.4 2.4 0.5
v 0.5 1.9 0.5
v 0.5 2 0.5
v 0.5 2.1 0.5
v 0.5 2.2 0.5
v 0.5 2.3 0.5
v 0.5 2.4 0.5
v 0.6 1.9 0.5
v 0.6 2 0.5
v 0.6 2.1 0.5
v 0.6 2.2 0.5
v 0.6 2.3 0.5
v 0.6 2.4 0.5
v 0.7 0.9 0.5
v 0.7 1.9 0.5
v 0.7 2 0.5
v 0.7 2.1 0.5
v 0.7 2.2 0.5
v 0.7 2.3 0.5
v 0.7 2.4 0.5
v 0.8 0.9 0.5
v 0.8 1.9 0.5
v 0.8 2.4 0.5
v 1.1 0 0.5
v 1.1 0.1 0.5
v 1.1 2.7 0.5
v 1.1 2.8 0.5
v 1.2 0.1 0.5
v 1.2 2.7 0.5
v -1 0.1 -0.5
v -1 2.7 -0.5
v -0.9 0 -0.5
v -0.9 0.1 -0.5
v -0.9 2.7 -0.5
v -0.9 2.8 -0.5
v -0.5 0.8 -0.5
v -0.5 1.1 -0.5
v 0.3 1.1 -0.5
v 0.3 2.5 -0.5
v 0.6 0.8 -0.5
v 0.6 2.5 -0.5
v 1.1 0 -0.5
v 1.1 0.1 -0.5
v 1.1 2.7 -0.5
v 1.1 2.8 -0.5
v 1.2 0.1 -0.5
v 1.2 2.7 -0.5
v -0.9 0 0.5
v 1.1 0 0.5
v -0.9 0 -0.5
v 1.1 0 -0.5
v -1 0.1 0.5
v -0.9 0.1 0.5
v 1.1 0.1 0.5
v 1.2 0.1 0.5
v -1 0.1 -0.5
v -0.9 0.1 -0.5
v 1.1 0.1 -0.5
v 1.2 0.1 -0.5
v -1 2.7 0.5
v -0.9 2.7 0.5
v 1.1 2.7 0.5
v 1.2 2.7 0.5
v -1 2.7 -0.5
v -0.9 2.7 -0.5
v 1.1 2.7 -0.5
v 1.2 2.7 -0.5
v -0.9 2.8 0.5
v 1.1 2.8 0.5
v -0.4 2.8 0.4
v 0.6 2.8 0.4
v -0.4 2.8 -0.4
v 0.6 2.8 -0.4
v -0.9 2.8 -0.5
v 1.1 2.8 -0.5

# faces
f 3/1/1 2/1/1 1/1/1
f 4/1/1 2/1/1 3/1/1
f 5/1/1 3/1/1 1/1/1
f 6/2/1 4/2/1 3/2/1
f 6/1/1 3/1/1 5/1/1
f 7/1/1 2/1/1 4/1/1
f 7/2/1 4/2/1 6/2/1
f 8/1/1 2/1/1 7/1/1
f 9/2/1 6/2/1 5/2/1
f 9/1/1 5/1/1 1/1/1
f 9/2/1 8/2/1 7/2/1
f 9/2/1 7/2/1 6/2/1
f 10/1/1 2/1/1 8/1/1
f 10/2/1 8/2/1 9/2/1
f 11/1/1 9/1/1 1/1/1
f 11/1/1 10/1/1 9/1/1
f 12/1/1 2/1/1 10/1/1
f 12/1/1 10/1/1 11/1/1
f 15/1/1 14/1/1 13/1/1
f 16/1/1 14/1/1 15/1/1
f 19/1/1 18/1/1 17/1/1
f 20/1/1 18/1/1 19/1/1
f 21/1/2 22/1/2 23/1/2
f 23/1/2 22/1/2 24/1/2
f 25/1/2 26/1/2 27/1/2
f 27/1/2 26/1/2 28/1/2
f 29/1/2 30/1/2 31/1/2
f 31/1/2 30/1/2 32/1/2
f 29/1/2 31/1/2 33/1/2
f 31/2/2 32/2/2 34/2/2
f 33/1/2 31/1/2 34/1/2
f 32/1/2 30/1/2 35/1/2
f 34/2/2 32/2/2 35/2/2
f 35/1/2 30/1/2 36/1/2
f 33/2/2 34/2/2 37/2/2
f 29/1/2 33/1/2 37/1/2
f 35/2/2 36/2/2 37/2/2
f 34/2/2 35/2/2 37/2/2
f 36/1/2 30/1/2 38/1/2
f 37/2/2 36/2/2 38/2/2
f 29/1/2 37/1/2 39/1/2
f 37/1/2 38/1/2 39/1/2
f 38/1/2 30/1/2 40/1/2
f 39/1/2 38/1/2 40/1/2
f 44/1/3 42/1/3 41/1/3
f 45/1/3 42/1/3 44/1/3
f 47/1/3 44/1/3 43/1/3
f 47/1/3 46/1/3 45/1/3
f 47/1/3 45/1/3 44/1/3
f 48/1/3 46/1/3 47/1/3
f 49/1/3 46/1/3 48/1/3
f 50/1/3 47/1/3 43/1/3
f 50/5/3 48/5/3 47/5/3
f 51/6/3 49/6/3 48/6/3
f 51/5/3 48/5/3 50/5/3
f 52/6/3 49/6/3 51/6/3
f 53/6/3 49/6/3 52/6/3
f 54/6/3 49/6/3 53/6/3
f 55/6/3 49/6/3 54/6/3
f 56/1/3 46/1/3 49/1/3
f 56/6/3 49/6/3 55/6/3
f 57/1/3 51/1/3 50/1/3
f 57/3/3 52/3/3 51/3/3
f 58/7/3 53/7/3 52/7/3
f 58/3/3 52/3/3 57/3/3
f 59/3/3 54/3/3 53/3/3
f 59/7/3 53/7/3 58/7/3
f 60/7/3 55/7/3 54/7/3
f 60/3/3 54/3/3 59/3/3
f 61/3/3 56/3/3 55/3/3
f 61/7/3 55/7/3 60/7/3
f 62/1/3 46/1/3 56/1/3
f 62/3/3 56/3/3 61/3/3
f 63/1/3 57/1/3 50/1/3
f 63/7/3 58/7/3 57/7/3
f 64/3/3 59/3/3 58/3/3
f 64/7/3 58/7/3 63/7/3
f 65/7/3 60/7/3 59/7/3
f 65/3/3 59/3/3 64/3/3
f 66/3/3 61/3/3 60/3/3
f 66/7/3 60/7/3 65/7/3
f 67/7/3 62/7/3 61/7/3
f 67/3/3 61/3/3 66/3/3
f 68/1/3 46/1/3 62/1/3
f 68/7/3 62/7/3 67/7/3
f 69/1/3 63/1/3 50/1/3
f 70/1/3 63/1/3 69/1/3
f 71/3/3 64/3/3 63/3/3
f 71/1/3 63/1/3 70/1/3
f 72/7/3 65/7/3 64/7/3
f 72/3/3 64/3/3 71/3/3
f 73/3/3 66/3/3 65/3/3
f 73/7/3 65/7/3 72/7/3
f 74/7/3 67/7/3 66/7/3
f 74/3/3 66/3/3 73/3/3
f 75/3/3 68/3/3 67/3/3
f 75/7/3 67/7/3 74/7/3
f 76/1/3 46/1/3 68/1/3
f 76/3/3 68/3/3 75/3/3
f 77/1/3 71/1/3 70/1/3
f 77/4/3 70/4/3 69/4/3
f 78/1/3 71/1/3 77/1/3
f 79/7/3 72/7/3 71/7/3
f 79/1/3 71/1/3 78/1/3
f 80/3/3 73/3/3 72/3/3
f 80/7/3 72/7/3 79/7/3
f 81/7/3 74/7/3 73/7/3
f 81/3/3 73/3/3 80/3/3
f 82/3/3 75/3/3 74/3/3
f 82/7/3 74/7/3 81/7/3
f 83/7/3 76/7/3 75/7/3
f 83/3/3 75/3/3 82/3/3
f 84/1/3 46/1/3 76/1/3
f 84/7/3 76/7/3 83/7/3
f 85/1/3 50/1/3 43/1/3
f 85/1/3 69/1/3 50/1/3
f 86/4/3 78/4/3 77/4/3
f 86/1/3 69/1/3 85/1/3
f 86/4/3 77/4/3 69/4/3
f 87/1/3 79/1/3 78/1/3
f 87/4/3 78/4/3 86/4/3
f 88/1/3 79/1/3 87/1/3
f 89/3/3 80/3/3 79/3/3
f 89/1/3 79/1/3 88/1/3
f 90/7/3 81/7/3 80/7/3
f 90/3/3 80/3/3 89/3/3
f 91/3/3 82/3/3 81/3/3
f 91/7/3 81/7/3 90/7/3
f 92/7/3 83/7/3 82/7/3
f 92/3/3 82/3/3 91/3/3
f 93/3/3 84/3/3 83/3/3
f 93/7/3 83/7/3 92/7/3
f 94/1/3 46/1/3 84/1/3
f 94/3/3 84/3/3 93/3/3
f 95/1/3 89/1/3 88/1/3
f 95/7/3 90/7/3 89/7/3
f 96/3/3 91/3/3 90/3/3
f 96/7/3 90/7/3 95/7/3
f 97/7/3 92/7/3 91/7/3
f 97/3/3 91/3/3 96/3/3
f 98/3/3 93/3/3 92/3/3
f 98/7/3 92/7/3 97/7/3
f 99/7/3 94/7/3 93/7/3
f 99/3/3 93/3/3 98/3/3
f 100/1/3 46/1/3 94/1/3
f 100/7/3 94/7/3 99/7/3
f 101/4/3 86/4/3 85/4/3
f 101/1/3 85/1/3 43/1/3
f 101/4/3 88/4/3 87/4/3
f 101/4/3 87/4/3 86/4/3
f 102/4/3 88/4/3 101/4/3
f 103/4/3 88/4/3 102/4/3
f 104/1/3 95/1/3 88/1/3
f 104/4/3 88/4/3 103/4/3
f 105/3/3 96/3/3 95/3/3
f 105/1/3 95/1/3 104/1/3
f 106/7/3 97/7/3 96/7/3
f 106/3/3 96/3/3 105/3/3
f 107/3/3 98/3/3 97/3/3
f 107/7/3 97/7/3 106/7/3
f 108/7/3 99/7/3 98/7/3
f 108/3/3 98/3/3 107/3/3
f 109/3/3 100/3/3 99/3/3
f 109/7/3 99/7/3 108/7/3
f 110/1/3 46/1/3 100/1/3
f 110/3/3 100/3/3 109/3/3
f 111/4/3 103/4/3 102/4/3
f 112/1/3 105/1/3 104/1/3
f 112/4/3 103/4/3 111/4/3
f 112/1/3 104/1/3 103/1/3
f 113/7/3 106/7/3 105/7/3
f 113/1/3 105/1/3 112/1/3
f 114/3/3 107/3/3 106/3/3
f 114/7/3 106/7/3 113/7/3
f 115/7/3 108/7/3 107/7/3
f 115/3/3 107/3/3 114/3/3
f 116/3/3 109/3/3 108/3/3
f 116/7/3 108/7/3 115/7/3
f 117/7/3 110/7/3 109/7/3
f 117/3/3 109/3/3 116/3/3
f 118/1/3 46/1/3 110/1/3
f 118/7/3 110/7/3 117/7/3
f 119/4/3 111/4/3 102/4/3
f 119/1/3 102/1/3 101/1/3
f 120/1/3 113/1/3 112/1/3
f 120/4/3 111/4/3 119/4/3
f 120/1/3 112/1/3 111/1/3
f 121/3/3 114/3/3 113/3/3
f 121/1/3 113/1/3 120/1/3
f 122/7/3 115/7/3 114/7/3
f 122/3/3 114/3/3 121/3/3
f 123/3/3 116/3/3 115/3/3
f 123/7/3 115/7/3 122/7/3
f 124/7/3 117/7/3 116/7/3
f 124/3/3 116/3/3 123/3/3
f 125/3/3 118/3/3 117/3/3
f 125/7/3 117/7/3 124/7/3
f 126/1/3 46/1/3 118/1/3
f 126/3/3 118/3/3 125/3/3
f 127/1/3 121/1/3 120/1/3
f 127/1/3 120/1/3 119/1/3
f 127/7/3 122/7/3 121/7/3
f 128/3/3 123/3/3 122/3/3
f 128/7/3 122/7/3 127/7/3
f 129/7/3 124/7/3 123/7/3
f 129/3/3 123/3/3 128/3/3
f 130/3/3 125/3/3 124/3/3
f 130/7/3 124/7/3 129/7/3
f 131/7/3 126/7/3 125/7/3
f 131/3/3 125/3/3 130/3/3
f 132/1/3 46/1/3 126/1/3
f 132/7/3 126/7/3 131/7/3
f 133/1/3 127/1/3 119/1/3
f 133/3/3 128/3/3 127/3/3
f 134/7/3 129/7/3 128/7/3
f 134/3/3 128/3/3 133/3/3
f 135/3/3 130/3/3 129/3/3
f 135/7/3 129/7/3 134/7/3
f 136/7/3 131/7/3 130/7/3
f 136/3/3 130/3/3 135/3/3
f 137/3/3 132/3/3 131/3/3
f 137/7/3 131/7/3 136/7/3
f 138/1/3 46/1/3 132/1/3
f 138/3/3 132/3/3 137/3/3
f 139/1/3 119/1/3 101/1/3
f 139/1/3 133/1/3 119/1/3
f 140/7/3 134/7/3 133/7/3
f 140/1/3 133/1/3 139/1/3
f 141/3/3 135/3/3 134/3/3
f 141/7/3 134/7/3 140/7/3
f 142/7/3 136/7/3 135/7/3
f 142/3/3 135/3/3 141/3/3
f 143/3/3 137/3/3 136/3/3
f 143/7/3 136/7/3 142/7/3
f 144/7/3 138/7/3 137/7/3
f 144/3/3 137/3/3 143/3/3
f 145/1/3 46/1/3 138/1/3
f 145/7/3 138/7/3 144/7/3
f 146/5/3 140/5/3 139/5/3
f 146/1/3 139/1/3 101/1/3
f 147/6/3 144/6/3 143/6/3
f 147/5/3 140/5/3 146/5/3
f 147/6/3 143/6/3 142/6/3
f 147/6/3 142/6/3 141/6/3
f 147/6/3 145/6/3 144/6/3
f 147/6/3 141/6/3 140/6/3
f 148/1/3 46/1/3 145/1/3
f 148/6/3 145/6/3 147/6/3
f 149/1/3 146/1/3 101/1/3
f 149/1/3 101/1/3 43/1/3
f 149/1/3 148/1/3 147/1/3
f 149/1/3 147/1/3 146/1/3
f 150/1/3 148/1/3 149/1/3
f 151/1/3 46/1/3 148/1/3
f 151/1/3 148/1/3 150/1/3
f 152/1/3 46/1/3 151/1/3
f 153/1/3 151/1/3 150/1/3
f 154/1/3 151/1/3 153/1/3
f 155/1/4 156/1/4 158/1/4
f 158/1/4 156/1/4 159/1/4
f 157/1/4 158/1/4 161/1/4
f 159/1/4 160/1/4 161/1/4
f 158/1/4 159/1/4 161/1/4
f 161/1/4 160/1/4 162/1/4
f 161/3/4 162/3/4 163/3/4
f 162/1/4 160/1/4 163/1/4
f 163/1/4 160/1/4 164/1/4
f 157/1/4 161/1/4 165/1/4
f 161/3/4 163/3/4 165/3/4
f 163/3/4 164/3/4 165/3/4
f 164/1/4 160/1/4 166/1/4
f 165/3/4 164/3/4 166/3/4
f 157/1/4 165/1/4 167/1/4
f 165/1/4 166/1/4 167/1/4
f 167/1/4 166/1/4 168/1/4
f 166/1/4 160/1/4 169/1/4
f 168/1/4 166/1/4 169/1/4
f 169/1/4 160/1/4 170/1/4
f 168/1/4 169/1/4 171/1/4
f 171/1/4 169/1/4 172/1/4
f 175/1/5 174/1/5 173/1/5
f 176/1/5 174/1/5 175/1/5
f 181/1/5 178/1/5 177/1/5
f 182/1/5 178/1/5 181/1/5
f 183/1/5 180/1/5 179/1/5
f 184/1/5 180/1/5 183/1/5
f 185/1/6 186/1/6 189/1/6
f 189/1/6 186/1/6 190/1/6
f 187/1/6 188/1/6 191/1/6
f 191/1/6 188/1/6 192/1/6
f 193/1/6 194/1/6 195/1/6
f 195/1/6 194/1/6 196/1/6
f 193/1/6 195/1/6 197/1/6
f 195/2/6 196/2/6 197/2/6
f 196/1/6 194/1/6 198/1/6
f 197/2/6 196/2/6 198/2/6
f 193/1/6 197/1/6 199/1/6
f 197/1/6 198/1/6 199/1/6
f 198/1/6 194/1/6 200/1/6
f 199/1/6 198/1/6 200/1/6
