# MagicaVoxel @ Ephtracy

# group
o 

# material
mtllib Lucas-0.mtl
usemtl palette

# normals
vn 1 0 0
vn -1 0 0
vn 0 0 1
vn 0 0 -1
vn 0 -1 0
vn 0 1 0

# texcoords
vt 0.248047 0.5
vt 0.275391 0.5
vt 0.775391 0.5
vt 0.958984 0.5

# verts
v 0.4 -1 0.3
v 0.4 -1 -0.4
v 0.4 -0.9 0.3
v 0.4 -0.9 -0.4
v 0.4 -0.0999999 0.3
v 0.4 -0.0999999 -0.4
v 0.3 -2.6 0.3
v 0.3 -2.6 -0.3
v 0.3 -1.1 0.3
v 0.3 -1.1 -0.3
v 0.3 -1 0.3
v 0.3 -1 -0.3
v 0.3 -0.0999999 0.3
v 0.3 -0.0999999 -0.4
v 0.3 0 0.3
v 0.3 0 -0.4
v 0.1 -2.6 0.4
v 0.1 -2.6 0.3
v 0.1 -2.4 0.4
v 0.1 -2.4 0.3
v 0 -2.4 0.4
v 0 -2.4 0.3
v 0 -2.3 0.4
v 0 -2.3 0.3
v -0.1 -2.6 0.4
v -0.1 -2.6 -0.3
v -0.1 -2.3 0.4
v -0.1 -2.3 0.3
v -0.1 -1.1 0.3
v -0.1 -1.1 -0.3
v -0.1 -1 0.3
v -0.1 -1 -0.3
v -0.2 -1 0.3
v -0.2 -1 -0.4
v -0.2 -0.4 0.3
v -0.2 -0.4 -0.4
v -0.2 0 0.3
v -0.2 0 -0.4
v 0.1 -2.6 0.4
v 0.1 -2.4 0.4
v 0 -2.4 0.4
v 0 -2.3 0.4
v -0.1 -2.6 0.4
v -0.1 -2.3 0.4
v 0.4 -1 0.3
v 0.4 -0.9 0.3
v 0.4 -0.0999999 0.3
v 0.3 -2.6 0.3
v 0.3 -1.1 0.3
v 0.3 -1 0.3
v 0.3 -0.9 0.3
v 0.3 -0.8 0.3
v 0.3 -0.0999999 0.3
v 0.3 0 0.3
v 0.2 -0.8 0.3
v 0.2 -0.7 0.3
v 0.1 -2.6 0.3
v 0.1 -2.4 0.3
v 0.1 -0.7 0.3
v 0.1 -0.6 0.3
v 0 -2.4 0.3
v 0 -2.3 0.3
v 0 -0.6 0.3
v 0 -0.5 0.3
v -0.1 -2.3 0.3
v -0.1 -1.1 0.3
v -0.1 -1 0.3
v -0.1 -0.5 0.3
v -0.1 -0.4 0.3
v -0.2 -1 0.3
v -0.2 -0.4 0.3
v -0.2 0 0.3
v 0.3 -2.6 -0.3
v 0.3 -1.1 -0.3
v 0.3 -1 -0.3
v -0.1 -2.6 -0.3
v -0.1 -1.1 -0.3
v -0.1 -1 -0.3
v 0.4 -1 -0.4
v 0.4 -0.9 -0.4
v 0.4 -0.0999999 -0.4
v 0.3 -0.9 -0.4
v 0.3 -0.8 -0.4
v 0.3 -0.0999999 -0.4
v 0.3 0 -0.4
v 0.2 -0.8 -0.4
v 0.2 -0.7 -0.4
v 0.1 -0.7 -0.4
v 0.1 -0.6 -0.4
v 0 -0.6 -0.4
v 0 -0.5 -0.4
v -0.1 -0.5 -0.4
v -0.1 -0.4 -0.4
v -0.2 -1 -0.4
v -0.2 -0.4 -0.4
v -0.2 0 -0.4
v 0.1 -2.6 0.4
v -0.1 -2.6 0.4
v 0.3 -2.6 0.3
v 0.1 -2.6 0.3
v 0.3 -2.6 -0.3
v -0.1 -2.6 -0.3
v 0.4 -1 0.3
v 0.3 -1 0.3
v -0.1 -1 0.3
v -0.2 -1 0.3
v 0.3 -1 -0.3
v -0.1 -1 -0.3
v 0.4 -1 -0.4
v -0.2 -1 -0.4
v 0.1 -2.4 0.4
v 0 -2.4 0.4
v 0.1 -2.4 0.3
v 0 -2.4 0.3
v 0 -2.3 0.4
v -0.1 -2.3 0.4
v 0 -2.3 0.3
v -0.1 -2.3 0.3
v 0.4 -0.0999999 0.3
v 0.3 -0.0999999 0.3
v 0.4 -0.0999999 -0.4
v 0.3 -0.0999999 -0.4
v 0.3 0 0.3
v -0.2 0 0.3
v 0.3 0 -0.4
v -0.2 0 -0.4

# faces
f 1/4/1 2/4/1 3/4/1
f 3/4/1 2/4/1 4/4/1
f 3/3/1 4/3/1 5/3/1
f 5/3/1 4/3/1 6/3/1
f 7/2/1 8/2/1 9/2/1
f 9/2/1 8/2/1 10/2/1
f 9/1/1 10/1/1 11/1/1
f 11/1/1 10/1/1 12/1/1
f 13/3/1 14/3/1 15/3/1
f 15/3/1 14/3/1 16/3/1
f 17/2/1 18/2/1 19/2/1
f 19/2/1 18/2/1 20/2/1
f 21/2/1 22/2/1 23/2/1
f 23/2/1 22/2/1 24/2/1
f 27/2/2 26/2/2 25/2/2
f 28/2/2 26/2/2 27/2/2
f 29/2/2 26/2/2 28/2/2
f 30/2/2 26/2/2 29/2/2
f 31/1/2 30/1/2 29/1/2
f 32/1/2 30/1/2 31/1/2
f 35/4/2 34/4/2 33/4/2
f 36/4/2 34/4/2 35/4/2
f 37/3/2 36/3/2 35/3/2
f 38/3/2 36/3/2 37/3/2
f 39/2/3 40/2/3 41/2/3
f 39/2/3 41/2/3 43/2/3
f 41/2/3 42/2/3 43/2/3
f 43/2/3 42/2/3 44/2/3
f 45/4/3 46/4/3 50/4/3
f 46/3/3 47/3/3 51/3/3
f 50/4/3 46/4/3 51/4/3
f 51/3/3 47/3/3 52/3/3
f 52/3/3 47/3/3 53/3/3
f 50/4/3 51/4/3 55/4/3
f 53/3/3 54/3/3 55/3/3
f 52/3/3 53/3/3 55/3/3
f 51/4/3 52/4/3 55/4/3
f 55/3/3 54/3/3 56/3/3
f 48/2/3 49/2/3 57/2/3
f 57/2/3 49/2/3 58/2/3
f 56/3/3 54/3/3 59/3/3
f 55/4/3 56/4/3 59/4/3
f 59/3/3 54/3/3 60/3/3
f 58/2/3 49/2/3 61/2/3
f 61/2/3 49/2/3 62/2/3
f 60/3/3 54/3/3 63/3/3
f 59/4/3 60/4/3 63/4/3
f 63/3/3 54/3/3 64/3/3
f 62/2/3 49/2/3 65/2/3
f 49/1/3 50/1/3 66/1/3
f 65/2/3 49/2/3 66/2/3
f 50/4/3 55/4/3 67/4/3
f 66/1/3 50/1/3 67/1/3
f 63/4/3 64/4/3 67/4/3
f 59/4/3 63/4/3 67/4/3
f 55/4/3 59/4/3 67/4/3
f 64/3/3 54/3/3 68/3/3
f 67/4/3 64/4/3 68/4/3
f 68/3/3 54/3/3 69/3/3
f 68/4/3 69/4/3 70/4/3
f 67/4/3 68/4/3 70/4/3
f 69/3/3 54/3/3 71/3/3
f 70/4/3 69/4/3 71/4/3
f 71/3/3 54/3/3 72/3/3
f 76/2/4 74/2/4 73/2/4
f 77/1/4 75/1/4 74/1/4
f 77/2/4 74/2/4 76/2/4
f 78/1/4 75/1/4 77/1/4
f 82/4/4 80/4/4 79/4/4
f 82/3/4 81/3/4 80/3/4
f 83/3/4 81/3/4 82/3/4
f 84/3/4 81/3/4 83/3/4
f 86/4/4 83/4/4 82/4/4
f 86/3/4 85/3/4 84/3/4
f 86/3/4 84/3/4 83/3/4
f 87/3/4 85/3/4 86/3/4
f 88/4/4 87/4/4 86/4/4
f 88/3/4 85/3/4 87/3/4
f 89/3/4 85/3/4 88/3/4
f 90/4/4 89/4/4 88/4/4
f 90/3/4 85/3/4 89/3/4
f 91/3/4 85/3/4 90/3/4
f 92/4/4 91/4/4 90/4/4
f 92/3/4 85/3/4 91/3/4
f 93/3/4 85/3/4 92/3/4
f 94/4/4 82/4/4 79/4/4
f 94/4/4 86/4/4 82/4/4
f 94/4/4 93/4/4 92/4/4
f 94/4/4 92/4/4 90/4/4
f 94/4/4 90/4/4 88/4/4
f 94/4/4 88/4/4 86/4/4
f 95/3/4 85/3/4 93/3/4
f 95/4/4 93/4/4 94/4/4
f 96/3/4 85/3/4 95/3/4
f 97/2/5 98/2/5 100/2/5
f 99/2/5 100/2/5 101/2/5
f 100/2/5 98/2/5 102/2/5
f 101/2/5 100/2/5 102/2/5
f 103/4/5 104/4/5 107/4/5
f 105/4/5 106/4/5 108/4/5
f 103/4/5 107/4/5 109/4/5
f 107/4/5 108/4/5 109/4/5
f 108/4/5 106/4/5 110/4/5
f 109/4/5 108/4/5 110/4/5
f 113/2/6 112/2/6 111/2/6
f 114/2/6 112/2/6 113/2/6
f 117/2/6 116/2/6 115/2/6
f 118/2/6 116/2/6 117/2/6
f 121/3/6 120/3/6 119/3/6
f 122/3/6 120/3/6 121/3/6
f 125/3/6 124/3/6 123/3/6
f 126/3/6 124/3/6 125/3/6
