# MagicaVoxel @ Ephtracy

# group
o 

# material
mtllib Lucas-2.mtl
usemtl palette

# normals
vn -1 0 0
vn 1 0 0
vn 0 0 1
vn 0 0 -1
vn 0 -1 0
vn 0 1 0

# texcoords
vt 0.248047 0.5
vt 0.275391 0.5
vt 0.416016 0.5
vt 0.482422 0.5
vt 0.775391 0.5
vt 0.958984 0.5
vt 0.994141 0.5

# verts
v -0.2 -2.3 0.4
v -0.2 -2.3 -0.4
v -0.2 -2.1 0.4
v -0.2 -2.1 -0.4
v -0.2 -1 0.3
v -0.2 -1 -0.4
v -0.2 -0.9 0.3
v -0.2 -0.9 -0.4
v -0.2 -0.0999999 0.3
v -0.2 -0.0999999 -0.4
v -0.1 -2.6 0.3
v -0.1 -2.6 -0.3
v -0.1 -2.3 0.3
v -0.1 -2.3 -0.3
v -0.1 -2.1 0.3
v -0.1 -2.1 -0.3
v -0.1 -1.1 0.3
v -0.1 -1.1 -0.3
v -0.1 -1 0.3
v -0.1 -1 -0.3
v -0.1 -0.0999999 0.3
v -0.1 -0.0999999 -0.4
v -0.1 0 0.3
v -0.1 0 -0.4
v 0.1 -2.6 0.4
v 0.1 -2.6 0.3
v 0.1 -2.4 0.4
v 0.1 -2.4 0.3
v 0.2 -2.4 0.4
v 0.2 -2.4 0.3
v 0.2 -2.3 0.4
v 0.2 -2.3 0.3
v 0.3 -2.6 0.4
v 0.3 -2.6 -0.3
v 0.3 -2.3 0.4
v 0.3 -2.3 -0.3
v 0.3 -2.1 0.3
v 0.3 -2.1 -0.3
v 0.3 -1.1 0.3
v 0.3 -1.1 -0.3
v 0.3 -1 0.3
v 0.3 -1 -0.3
v 0.4 -2.3 0.4
v 0.4 -2.3 -0.4
v 0.4 -2.1 0.4
v 0.4 -2.1 -0.4
v 0.4 -1 0.3
v 0.4 -1 -0.4
v 0.4 -0.4 0.3
v 0.4 -0.4 -0.4
v 0.4 0 0.3
v 0.4 0 -0.4
v -0.2 -2.3 0.4
v -0.2 -2.1 0.4
v 0 -2.3 0.4
v 0 -2.2 0.4
v 0 -2.1 0.4
v 0.1 -2.6 0.4
v 0.1 -2.4 0.4
v 0.1 -2.3 0.4
v 0.1 -2.2 0.4
v 0.1 -2.1 0.4
v 0.2 -2.4 0.4
v 0.2 -2.3 0.4
v 0.2 -2.2 0.4
v 0.2 -2.1 0.4
v 0.3 -2.6 0.4
v 0.3 -2.3 0.4
v 0.4 -2.3 0.4
v 0.4 -2.1 0.4
v -0.2 -1 0.3
v -0.2 -0.9 0.3
v -0.2 -0.0999999 0.3
v -0.1 -2.6 0.3
v -0.1 -2.3 0.3
v -0.1 -2.1 0.3
v -0.1 -1.1 0.3
v -0.1 -1 0.3
v -0.1 -0.9 0.3
v -0.1 -0.8 0.3
v -0.1 -0.0999999 0.3
v -0.1 0 0.3
v 0 -2.3 0.3
v 0 -2.1 0.3
v 0 -0.8 0.3
v 0 -0.7 0.3
v 0.1 -2.6 0.3
v 0.1 -2.4 0.3
v 0.1 -2.3 0.3
v 0.1 -2.1 0.3
v 0.1 -0.7 0.3
v 0.1 -0.6 0.3
v 0.2 -2.4 0.3
v 0.2 -2.3 0.3
v 0.2 -2.1 0.3
v 0.2 -0.6 0.3
v 0.2 -0.5 0.3
v 0.3 -2.1 0.3
v 0.3 -1.1 0.3
v 0.3 -1 0.3
v 0.3 -0.5 0.3
v 0.3 -0.4 0.3
v 0.4 -1 0.3
v 0.4 -0.4 0.3
v 0.4 0 0.3
v -0.1 -2.6 -0.3
v -0.1 -2.3 -0.3
v -0.1 -2.1 -0.3
v -0.1 -1.1 -0.3
v -0.1 -1 -0.3
v 0.3 -2.6 -0.3
v 0.3 -2.3 -0.3
v 0.3 -2.1 -0.3
v 0.3 -1.1 -0.3
v 0.3 -1 -0.3
v -0.2 -2.3 -0.4
v -0.2 -2.1 -0.4
v -0.2 -1 -0.4
v -0.2 -0.9 -0.4
v -0.2 -0.0999999 -0.4
v -0.1 -0.9 -0.4
v -0.1 -0.8 -0.4
v -0.1 -0.0999999 -0.4
v -0.1 0 -0.4
v 0 -0.8 -0.4
v 0 -0.7 -0.4
v 0.1 -0.7 -0.4
v 0.1 -0.6 -0.4
v 0.2 -0.6 -0.4
v 0.2 -0.5 -0.4
v 0.3 -0.5 -0.4
v 0.3 -0.4 -0.4
v 0.4 -2.3 -0.4
v 0.4 -2.1 -0.4
v 0.4 -1 -0.4
v 0.4 -0.4 -0.4
v 0.4 0 -0.4
v 0.1 -2.6 0.4
v 0.3 -2.6 0.4
v -0.1 -2.6 0.3
v 0.1 -2.6 0.3
v -0.1 -2.6 -0.3
v 0.3 -2.6 -0.3
v -0.2 -2.3 0.4
v 0 -2.3 0.4
v 0.1 -2.3 0.4
v 0.2 -2.3 0.4
v 0.3 -2.3 0.4
v 0.4 -2.3 0.4
v -0.1 -2.3 0.3
v 0 -2.3 0.3
v 0.1 -2.3 0.3
v 0.2 -2.3 0.3
v -0.1 -2.3 -0.3
v 0.3 -2.3 -0.3
v -0.2 -2.3 -0.4
v 0.4 -2.3 -0.4
v -0.2 -1 0.3
v -0.1 -1 0.3
v 0.3 -1 0.3
v 0.4 -1 0.3
v -0.1 -1 -0.3
v 0.3 -1 -0.3
v -0.2 -1 -0.4
v 0.4 -1 -0.4
v 0.1 -2.4 0.4
v 0.2 -2.4 0.4
v 0.1 -2.4 0.3
v 0.2 -2.4 0.3
v -0.2 -2.1 0.4
v 0 -2.1 0.4
v 0.1 -2.1 0.4
v 0.2 -2.1 0.4
v 0.4 -2.1 0.4
v -0.1 -2.1 0.3
v 0 -2.1 0.3
v 0.1 -2.1 0.3
v 0.2 -2.1 0.3
v 0.3 -2.1 0.3
v -0.1 -2.1 -0.3
v 0.3 -2.1 -0.3
v -0.2 -2.1 -0.4
v 0.4 -2.1 -0.4
v -0.2 -0.0999999 0.3
v -0.1 -0.0999999 0.3
v -0.2 -0.0999999 -0.4
v -0.1 -0.0999999 -0.4
v -0.1 0 0.3
v 0.4 0 0.3
v -0.1 0 -0.4
v 0.4 0 -0.4

# faces
f 3/7/1 2/7/1 1/7/1
f 4/7/1 2/7/1 3/7/1
f 7/6/1 6/6/1 5/6/1
f 8/6/1 6/6/1 7/6/1
f 9/5/1 8/5/1 7/5/1
f 10/5/1 8/5/1 9/5/1
f 13/2/1 12/2/1 11/2/1
f 14/2/1 12/2/1 13/2/1
f 17/2/1 16/2/1 15/2/1
f 18/2/1 16/2/1 17/2/1
f 19/1/1 18/1/1 17/1/1
f 20/1/1 18/1/1 19/1/1
f 23/5/1 22/5/1 21/5/1
f 24/5/1 22/5/1 23/5/1
f 27/2/1 26/2/1 25/2/1
f 28/2/1 26/2/1 27/2/1
f 31/2/1 30/2/1 29/2/1
f 32/2/1 30/2/1 31/2/1
f 33/2/2 34/2/2 35/2/2
f 35/2/2 34/2/2 36/2/2
f 37/2/2 38/2/2 39/2/2
f 39/2/2 38/2/2 40/2/2
f 39/1/2 40/1/2 41/1/2
f 41/1/2 40/1/2 42/1/2
f 43/7/2 44/7/2 45/7/2
f 45/7/2 44/7/2 46/7/2
f 47/6/2 48/6/2 49/6/2
f 49/6/2 48/6/2 50/6/2
f 49/5/2 50/5/2 51/5/2
f 51/5/2 50/5/2 52/5/2
f 55/7/3 54/7/3 53/7/3
f 56/7/3 54/7/3 55/7/3
f 57/7/3 54/7/3 56/7/3
f 60/4/3 56/4/3 55/4/3
f 61/3/3 57/3/3 56/3/3
f 61/4/3 56/4/3 60/4/3
f 62/3/3 57/3/3 61/3/3
f 63/2/3 59/2/3 58/2/3
f 64/3/3 61/3/3 60/3/3
f 65/4/3 62/4/3 61/4/3
f 65/3/3 61/3/3 64/3/3
f 66/4/3 62/4/3 65/4/3
f 67/2/3 63/2/3 58/2/3
f 67/2/3 64/2/3 63/2/3
f 68/7/3 66/7/3 65/7/3
f 68/2/3 64/2/3 67/2/3
f 68/7/3 65/7/3 64/7/3
f 69/7/3 66/7/3 68/7/3
f 70/7/3 66/7/3 69/7/3
f 78/6/3 72/6/3 71/6/3
f 79/5/3 73/5/3 72/5/3
f 79/6/3 72/6/3 78/6/3
f 80/5/3 73/5/3 79/5/3
f 81/5/3 73/5/3 80/5/3
f 83/2/3 75/2/3 74/2/3
f 84/2/3 77/2/3 76/2/3
f 85/5/3 82/5/3 81/5/3
f 85/6/3 79/6/3 78/6/3
f 85/6/3 80/6/3 79/6/3
f 85/5/3 81/5/3 80/5/3
f 86/5/3 82/5/3 85/5/3
f 87/2/3 83/2/3 74/2/3
f 88/2/3 83/2/3 87/2/3
f 89/2/3 83/2/3 88/2/3
f 90/2/3 77/2/3 84/2/3
f 91/5/3 82/5/3 86/5/3
f 91/6/3 86/6/3 85/6/3
f 92/5/3 82/5/3 91/5/3
f 93/2/3 89/2/3 88/2/3
f 94/2/3 89/2/3 93/2/3
f 95/2/3 77/2/3 90/2/3
f 96/5/3 82/5/3 92/5/3
f 96/6/3 92/6/3 91/6/3
f 97/5/3 82/5/3 96/5/3
f 98/2/3 77/2/3 95/2/3
f 99/1/3 78/1/3 77/1/3
f 99/2/3 77/2/3 98/2/3
f 100/6/3 97/6/3 96/6/3
f 100/1/3 78/1/3 99/1/3
f 100/6/3 85/6/3 78/6/3
f 100/6/3 96/6/3 91/6/3
f 100/6/3 91/6/3 85/6/3
f 101/5/3 82/5/3 97/5/3
f 101/6/3 97/6/3 100/6/3
f 102/5/3 82/5/3 101/5/3
f 103/6/3 102/6/3 101/6/3
f 103/6/3 101/6/3 100/6/3
f 104/5/3 82/5/3 102/5/3
f 104/6/3 102/6/3 103/6/3
f 105/5/3 82/5/3 104/5/3
f 106/2/4 107/2/4 111/2/4
f 111/2/4 107/2/4 112/2/4
f 108/2/4 109/2/4 113/2/4
f 109/1/4 110/1/4 114/1/4
f 113/2/4 109/2/4 114/2/4
f 114/1/4 110/1/4 115/1/4
f 118/6/4 119/6/4 121/6/4
f 119/5/4 120/5/4 121/5/4
f 121/5/4 120/5/4 122/5/4
f 122/5/4 120/5/4 123/5/4
f 121/6/4 122/6/4 125/6/4
f 123/5/4 124/5/4 125/5/4
f 122/5/4 123/5/4 125/5/4
f 125/5/4 124/5/4 126/5/4
f 125/6/4 126/6/4 127/6/4
f 126/5/4 124/5/4 127/5/4
f 127/5/4 124/5/4 128/5/4
f 127/6/4 128/6/4 129/6/4
f 128/5/4 124/5/4 129/5/4
f 129/5/4 124/5/4 130/5/4
f 129/6/4 130/6/4 131/6/4
f 130/5/4 124/5/4 131/5/4
f 131/5/4 124/5/4 132/5/4
f 116/7/4 117/7/4 133/7/4
f 133/7/4 117/7/4 134/7/4
f 118/6/4 121/6/4 135/6/4
f 121/6/4 125/6/4 135/6/4
f 125/6/4 127/6/4 135/6/4
f 131/6/4 132/6/4 135/6/4
f 129/6/4 131/6/4 135/6/4
f 127/6/4 129/6/4 135/6/4
f 132/5/4 124/5/4 136/5/4
f 135/6/4 132/6/4 136/6/4
f 136/5/4 124/5/4 137/5/4
f 141/2/5 139/2/5 138/2/5
f 142/2/5 141/2/5 140/2/5
f 143/2/5 139/2/5 141/2/5
f 143/2/5 141/2/5 142/2/5
f 150/7/5 145/7/5 144/7/5
f 151/4/5 146/4/5 145/4/5
f 151/7/5 145/7/5 150/7/5
f 152/3/5 147/3/5 146/3/5
f 152/4/5 146/4/5 151/4/5
f 153/3/5 147/3/5 152/3/5
f 154/7/5 150/7/5 144/7/5
f 155/7/5 149/7/5 148/7/5
f 156/7/5 154/7/5 144/7/5
f 156/7/5 155/7/5 154/7/5
f 157/7/5 149/7/5 155/7/5
f 157/7/5 155/7/5 156/7/5
f 162/6/5 159/6/5 158/6/5
f 163/6/5 161/6/5 160/6/5
f 164/6/5 162/6/5 158/6/5
f 164/6/5 163/6/5 162/6/5
f 165/6/5 161/6/5 163/6/5
f 165/6/5 163/6/5 164/6/5
f 166/2/6 167/2/6 168/2/6
f 168/2/6 167/2/6 169/2/6
f 170/7/6 171/7/6 175/7/6
f 171/3/6 172/3/6 176/3/6
f 175/7/6 171/7/6 176/7/6
f 172/4/6 173/4/6 177/4/6
f 176/3/6 172/3/6 177/3/6
f 173/7/6 174/7/6 178/7/6
f 177/4/6 173/4/6 178/4/6
f 178/7/6 174/7/6 179/7/6
f 170/7/6 175/7/6 180/7/6
f 179/7/6 174/7/6 181/7/6
f 170/7/6 180/7/6 182/7/6
f 180/7/6 181/7/6 182/7/6
f 181/7/6 174/7/6 183/7/6
f 182/7/6 181/7/6 183/7/6
f 184/5/6 185/5/6 186/5/6
f 186/5/6 185/5/6 187/5/6
f 188/5/6 189/5/6 190/5/6
f 190/5/6 189/5/6 191/5/6
