# MagicaVoxel @ Ephtracy

# group
o 

# material
mtllib Gate2.mtl
usemtl palette

# normals
vn -1 0 0
vn 1 0 0
vn 0 0 1
vn 0 0 -1
vn 0 -1 0
vn 0 1 0

# texcoords
vt 0.841797 0.5
vt 0.958984 0.5
vt 0.994141 0.5

# verts
v -5 0 0.3
v -5 0 -0.6
v -5 4 0.3
v -5 4 -0.6
v 4.2 0 0.3
v 4.2 0 -0.6
v 4.2 1.4 0.3
v 4.2 1.4 -0.6
v 4.2 2.3 0.3
v 4.2 2.3 -0.6
v 4.2 3 0.3
v 4.2 3 -0.6
v -4.1 0 0.3
v -4.1 0 -0.6
v -4.1 1.4 0.3
v -4.1 1.4 -0.6
v -4.1 2.3 0.3
v -4.1 2.3 -0.6
v -4.1 3 0.3
v -4.1 3 -0.6
v -4.1 3.9 0.3
v -4.1 3.9 -0.6
v -4.1 4 0.3
v -4.1 4 -0.6
v 5 0 0.3
v 5 0 -0.6
v 5 3.9 0.3
v 5 3.9 -0.6
v -5 0 0.3
v -5 4 0.3
v -4.1 0 0.3
v -4.1 1.4 0.3
v -4.1 2.3 0.3
v -4.1 3 0.3
v -4.1 3.9 0.3
v -4.1 4 0.3
v -3.2 1.4 0.3
v -3.2 2.3 0.3
v -3.2 3 0.3
v -3.2 3.9 0.3
v -2.2 1.4 0.3
v -2.2 2.3 0.3
v -2.2 3 0.3
v -2.2 3.9 0.3
v -1.3 1.4 0.3
v -1.3 2.3 0.3
v -1.3 3 0.3
v -1.3 3.9 0.3
v -0.3 1.4 0.3
v -0.3 2.3 0.3
v -0.3 3 0.3
v -0.3 3.9 0.3
v 0.6 1.4 0.3
v 0.6 2.3 0.3
v 0.6 3 0.3
v 0.6 3.9 0.3
v 1.6 1.4 0.3
v 1.6 2.3 0.3
v 1.6 3 0.3
v 1.6 3.9 0.3
v 2.4 1.4 0.3
v 2.4 2.3 0.3
v 2.4 3 0.3
v 2.4 3.9 0.3
v 3.3 1.4 0.3
v 3.3 2.3 0.3
v 3.3 3 0.3
v 3.3 3.9 0.3
v 4.2 0 0.3
v 4.2 1.4 0.3
v 4.2 2.3 0.3
v 4.2 3 0.3
v 4.2 3.9 0.3
v 5 0 0.3
v 5 3.9 0.3
v -5 0 -0.6
v -5 4 -0.6
v -4.1 0 -0.6
v -4.1 1.4 -0.6
v -4.1 2.3 -0.6
v -4.1 3 -0.6
v -4.1 3.9 -0.6
v -4.1 4 -0.6
v -3.2 1.4 -0.6
v -3.2 2.3 -0.6
v -3.2 3 -0.6
v -3.2 3.9 -0.6
v -2.2 1.4 -0.6
v -2.2 2.3 -0.6
v -2.2 3 -0.6
v -2.2 3.9 -0.6
v -1.3 1.4 -0.6
v -1.3 2.3 -0.6
v -1.3 3 -0.6
v -1.3 3.9 -0.6
v -0.3 1.4 -0.6
v -0.3 2.3 -0.6
v -0.3 3 -0.6
v -0.3 3.9 -0.6
v 0.6 1.4 -0.6
v 0.6 2.3 -0.6
v 0.6 3 -0.6
v 0.6 3.9 -0.6
v 1.6 1.4 -0.6
v 1.6 2.3 -0.6
v 1.6 3 -0.6
v 1.6 3.9 -0.6
v 2.4 1.4 -0.6
v 2.4 2.3 -0.6
v 2.4 3 -0.6
v 2.4 3.9 -0.6
v 3.3 1.4 -0.6
v 3.3 2.3 -0.6
v 3.3 3 -0.6
v 3.3 3.9 -0.6
v 4.2 0 -0.6
v 4.2 1.4 -0.6
v 4.2 2.3 -0.6
v 4.2 3 -0.6
v 4.2 3.9 -0.6
v 5 0 -0.6
v 5 3.9 -0.6
v -5 0 0.3
v -4.1 0 0.3
v 4.2 0 0.3
v 5 0 0.3
v -5 0 -0.6
v -4.1 0 -0.6
v 4.2 0 -0.6
v 5 0 -0.6
v -4.1 1.4 0.3
v -3.2 1.4 0.3
v -2.2 1.4 0.3
v -1.3 1.4 0.3
v -0.3 1.4 0.3
v 0.6 1.4 0.3
v 1.6 1.4 0.3
v 2.4 1.4 0.3
v 3.3 1.4 0.3
v 4.2 1.4 0.3
v -4.1 1.4 -0.6
v -3.2 1.4 -0.6
v -2.2 1.4 -0.6
v -1.3 1.4 -0.6
v -0.3 1.4 -0.6
v 0.6 1.4 -0.6
v 1.6 1.4 -0.6
v 2.4 1.4 -0.6
v 3.3 1.4 -0.6
v 4.2 1.4 -0.6
v -4.1 3 0.3
v -3.2 3 0.3
v -2.2 3 0.3
v -1.3 3 0.3
v -0.3 3 0.3
v 0.6 3 0.3
v 1.6 3 0.3
v 2.4 3 0.3
v 3.3 3 0.3
v 4.2 3 0.3
v -4.1 3 -0.6
v -3.2 3 -0.6
v -2.2 3 -0.6
v -1.3 3 -0.6
v -0.3 3 -0.6
v 0.6 3 -0.6
v 1.6 3 -0.6
v 2.4 3 -0.6
v 3.3 3 -0.6
v 4.2 3 -0.6
v -4.1 2.3 0.3
v -3.2 2.3 0.3
v -2.2 2.3 0.3
v -1.3 2.3 0.3
v -0.3 2.3 0.3
v 0.6 2.3 0.3
v 1.6 2.3 0.3
v 2.4 2.3 0.3
v 3.3 2.3 0.3
v 4.2 2.3 0.3
v -4.1 2.3 -0.6
v -3.2 2.3 -0.6
v -2.2 2.3 -0.6
v -1.3 2.3 -0.6
v -0.3 2.3 -0.6
v 0.6 2.3 -0.6
v 1.6 2.3 -0.6
v 2.4 2.3 -0.6
v 3.3 2.3 -0.6
v 4.2 2.3 -0.6
v -4.1 3.9 0.3
v -3.2 3.9 0.3
v -2.2 3.9 0.3
v -1.3 3.9 0.3
v -0.3 3.9 0.3
v 0.6 3.9 0.3
v 1.6 3.9 0.3
v 2.4 3.9 0.3
v 3.3 3.9 0.3
v 4.2 3.9 0.3
v 5 3.9 0.3
v -4.1 3.9 -0.6
v -3.2 3.9 -0.6
v -2.2 3.9 -0.6
v -1.3 3.9 -0.6
v -0.3 3.9 -0.6
v 0.6 3.9 -0.6
v 1.6 3.9 -0.6
v 2.4 3.9 -0.6
v 3.3 3.9 -0.6
v 4.2 3.9 -0.6
v 5 3.9 -0.6
v -5 4 0.3
v -4.1 4 0.3
v -5 4 -0.6
v -4.1 4 -0.6

# faces
f 3/3/1 2/3/1 1/3/1
f 4/3/1 2/3/1 3/3/1
f 7/3/1 6/3/1 5/3/1
f 8/3/1 6/3/1 7/3/1
f 11/3/1 10/3/1 9/3/1
f 12/3/1 10/3/1 11/3/1
f 13/3/2 14/3/2 15/3/2
f 15/3/2 14/3/2 16/3/2
f 17/3/2 18/3/2 19/3/2
f 19/3/2 18/3/2 20/3/2
f 21/3/2 22/3/2 23/3/2
f 23/3/2 22/3/2 24/3/2
f 25/3/2 26/3/2 27/3/2
f 27/3/2 26/3/2 28/3/2
f 31/3/3 30/3/3 29/3/3
f 32/3/3 30/3/3 31/3/3
f 33/3/3 30/3/3 32/3/3
f 34/3/3 30/3/3 33/3/3
f 35/3/3 30/3/3 34/3/3
f 36/3/3 30/3/3 35/3/3
f 37/2/3 33/2/3 32/2/3
f 38/2/3 33/2/3 37/2/3
f 39/2/3 35/2/3 34/2/3
f 40/2/3 35/2/3 39/2/3
f 41/1/3 38/1/3 37/1/3
f 42/1/3 38/1/3 41/1/3
f 43/1/3 40/1/3 39/1/3
f 44/1/3 40/1/3 43/1/3
f 45/2/3 42/2/3 41/2/3
f 46/2/3 42/2/3 45/2/3
f 47/2/3 44/2/3 43/2/3
f 48/2/3 44/2/3 47/2/3
f 49/1/3 46/1/3 45/1/3
f 50/1/3 46/1/3 49/1/3
f 51/1/3 48/1/3 47/1/3
f 52/1/3 48/1/3 51/1/3
f 53/2/3 50/2/3 49/2/3
f 54/2/3 50/2/3 53/2/3
f 55/2/3 52/2/3 51/2/3
f 56/2/3 52/2/3 55/2/3
f 57/1/3 54/1/3 53/1/3
f 58/1/3 54/1/3 57/1/3
f 59/1/3 56/1/3 55/1/3
f 60/1/3 56/1/3 59/1/3
f 61/2/3 58/2/3 57/2/3
f 62/2/3 58/2/3 61/2/3
f 63/2/3 60/2/3 59/2/3
f 64/2/3 60/2/3 63/2/3
f 65/1/3 62/1/3 61/1/3
f 66/1/3 62/1/3 65/1/3
f 67/1/3 64/1/3 63/1/3
f 68/1/3 64/1/3 67/1/3
f 70/2/3 66/2/3 65/2/3
f 71/2/3 66/2/3 70/2/3
f 72/2/3 68/2/3 67/2/3
f 73/2/3 68/2/3 72/2/3
f 74/3/3 71/3/3 70/3/3
f 74/3/3 70/3/3 69/3/3
f 74/3/3 73/3/3 72/3/3
f 74/3/3 72/3/3 71/3/3
f 75/3/3 73/3/3 74/3/3
f 76/3/4 77/3/4 78/3/4
f 78/3/4 77/3/4 79/3/4
f 79/3/4 77/3/4 80/3/4
f 80/3/4 77/3/4 81/3/4
f 81/3/4 77/3/4 82/3/4
f 82/3/4 77/3/4 83/3/4
f 79/2/4 80/2/4 84/2/4
f 84/2/4 80/2/4 85/2/4
f 81/2/4 82/2/4 86/2/4
f 86/2/4 82/2/4 87/2/4
f 84/1/4 85/1/4 88/1/4
f 88/1/4 85/1/4 89/1/4
f 86/1/4 87/1/4 90/1/4
f 90/1/4 87/1/4 91/1/4
f 88/2/4 89/2/4 92/2/4
f 92/2/4 89/2/4 93/2/4
f 90/2/4 91/2/4 94/2/4
f 94/2/4 91/2/4 95/2/4
f 92/1/4 93/1/4 96/1/4
f 96/1/4 93/1/4 97/1/4
f 94/1/4 95/1/4 98/1/4
f 98/1/4 95/1/4 99/1/4
f 96/2/4 97/2/4 100/2/4
f 100/2/4 97/2/4 101/2/4
f 98/2/4 99/2/4 102/2/4
f 102/2/4 99/2/4 103/2/4
f 100/1/4 101/1/4 104/1/4
f 104/1/4 101/1/4 105/1/4
f 102/1/4 103/1/4 106/1/4
f 106/1/4 103/1/4 107/1/4
f 104/2/4 105/2/4 108/2/4
f 108/2/4 105/2/4 109/2/4
f 106/2/4 107/2/4 110/2/4
f 110/2/4 107/2/4 111/2/4
f 108/1/4 109/1/4 112/1/4
f 112/1/4 109/1/4 113/1/4
f 110/1/4 111/1/4 114/1/4
f 114/1/4 111/1/4 115/1/4
f 112/2/4 113/2/4 117/2/4
f 117/2/4 113/2/4 118/2/4
f 114/2/4 115/2/4 119/2/4
f 119/2/4 115/2/4 120/2/4
f 117/3/4 118/3/4 121/3/4
f 116/3/4 117/3/4 121/3/4
f 119/3/4 120/3/4 121/3/4
f 118/3/4 119/3/4 121/3/4
f 121/3/4 120/3/4 122/3/4
f 127/3/5 124/3/5 123/3/5
f 128/3/5 124/3/5 127/3/5
f 129/3/5 126/3/5 125/3/5
f 130/3/5 126/3/5 129/3/5
f 141/2/5 132/2/5 131/2/5
f 142/1/5 133/1/5 132/1/5
f 142/2/5 132/2/5 141/2/5
f 143/2/5 134/2/5 133/2/5
f 143/1/5 133/1/5 142/1/5
f 144/1/5 135/1/5 134/1/5
f 144/2/5 134/2/5 143/2/5
f 145/2/5 136/2/5 135/2/5
f 145/1/5 135/1/5 144/1/5
f 146/1/5 137/1/5 136/1/5
f 146/2/5 136/2/5 145/2/5
f 147/2/5 138/2/5 137/2/5
f 147/1/5 137/1/5 146/1/5
f 148/1/5 139/1/5 138/1/5
f 148/2/5 138/2/5 147/2/5
f 149/2/5 140/2/5 139/2/5
f 149/1/5 139/1/5 148/1/5
f 150/2/5 140/2/5 149/2/5
f 161/2/5 152/2/5 151/2/5
f 162/1/5 153/1/5 152/1/5
f 162/2/5 152/2/5 161/2/5
f 163/2/5 154/2/5 153/2/5
f 163/1/5 153/1/5 162/1/5
f 164/1/5 155/1/5 154/1/5
f 164/2/5 154/2/5 163/2/5
f 165/2/5 156/2/5 155/2/5
f 165/1/5 155/1/5 164/1/5
f 166/1/5 157/1/5 156/1/5
f 166/2/5 156/2/5 165/2/5
f 167/2/5 158/2/5 157/2/5
f 167/1/5 157/1/5 166/1/5
f 168/1/5 159/1/5 158/1/5
f 168/2/5 158/2/5 167/2/5
f 169/2/5 160/2/5 159/2/5
f 169/1/5 159/1/5 168/1/5
f 170/2/5 160/2/5 169/2/5
f 171/2/6 172/2/6 181/2/6
f 172/1/6 173/1/6 182/1/6
f 181/2/6 172/2/6 182/2/6
f 173/2/6 174/2/6 183/2/6
f 182/1/6 173/1/6 183/1/6
f 174/1/6 175/1/6 184/1/6
f 183/2/6 174/2/6 184/2/6
f 175/2/6 176/2/6 185/2/6
f 184/1/6 175/1/6 185/1/6
f 176/1/6 177/1/6 186/1/6
f 185/2/6 176/2/6 186/2/6
f 177/2/6 178/2/6 187/2/6
f 186/1/6 177/1/6 187/1/6
f 178/1/6 179/1/6 188/1/6
f 187/2/6 178/2/6 188/2/6
f 179/2/6 180/2/6 189/2/6
f 188/1/6 179/1/6 189/1/6
f 189/2/6 180/2/6 190/2/6
f 191/2/6 192/2/6 202/2/6
f 192/1/6 193/1/6 203/1/6
f 202/2/6 192/2/6 203/2/6
f 193/2/6 194/2/6 204/2/6
f 203/1/6 193/1/6 204/1/6
f 194/1/6 195/1/6 205/1/6
f 204/2/6 194/2/6 205/2/6
f 195/2/6 196/2/6 206/2/6
f 205/1/6 195/1/6 206/1/6
f 196/1/6 197/1/6 207/1/6
f 206/2/6 196/2/6 207/2/6
f 197/2/6 198/2/6 208/2/6
f 207/1/6 197/1/6 208/1/6
f 198/1/6 199/1/6 209/1/6
f 208/2/6 198/2/6 209/2/6
f 199/2/6 200/2/6 210/2/6
f 209/1/6 199/1/6 210/1/6
f 200/3/6 201/3/6 211/3/6
f 210/2/6 200/2/6 211/2/6
f 211/3/6 201/3/6 212/3/6
f 213/3/6 214/3/6 215/3/6
f 215/3/6 214/3/6 216/3/6
