# MagicaVoxel @ Ephtracy

# group
o 

# material
mtllib Girl-4.mtl
usemtl palette

# normals
vn -1 0 0
vn 1 0 0
vn 0 0 1
vn 0 0 -1
vn 0 -1 0
vn 0 1 0

# texcoords
vt 0.314453 0.5
vt 0.345703 0.5
vt 0.775391 0.5
vt 0.791016 0.5
vt 0.818359 0.5
vt 0.822266 0.5

# verts
v -1.2 0.1 0.4
v -1.2 0.1 -0.5
v -1.2 2.7 0.4
v -1.2 2.7 -0.5
v -1.1 0 0.4
v -1.1 0 -0.5
v -1.1 0.1 0.4
v -1.1 0.1 -0.5
v -1.1 2.7 0.4
v -1.1 2.7 -0.5
v -1.1 2.8 0.4
v -1.1 2.8 -0.5
v -0.8 1.8 0.5
v -0.8 1.8 0.4
v -0.8 2.2 0.5
v -0.8 2.2 0.4
v -0.7 1.7 0.5
v -0.7 1.7 0.4
v -0.7 1.8 0.5
v -0.7 1.8 0.4
v -0.7 2.2 0.5
v -0.7 2.2 0.4
v -0.7 2.3 0.5
v -0.7 2.3 0.4
v -0.6 2.3 0.5
v -0.6 2.3 0.4
v -0.6 2.4 0.5
v -0.6 2.4 0.4
v -0.5 1.6 0.5
v -0.5 1.6 0.4
v -0.5 1.7 0.5
v -0.5 1.7 0.4
v 0.3 1.6 0.5
v 0.3 1.6 0.4
v 0.3 1.7 0.5
v 0.3 1.7 0.4
v 0.4 2.3 0.5
v 0.4 2.3 0.4
v 0.4 2.4 0.5
v 0.4 2.4 0.4
v 0.5 1.7 0.5
v 0.5 1.7 0.4
v 0.5 1.8 0.5
v 0.5 1.8 0.4
v 0.5 2.2 0.5
v 0.5 2.2 0.4
v 0.5 2.3 0.5
v 0.5 2.3 0.4
v 0.6 1.8 0.5
v 0.6 1.8 0.4
v 0.6 2.2 0.5
v 0.6 2.2 0.4
v 0.9 0 0.4
v 0.9 0 -0.5
v 0.9 0.1 0.4
v 0.9 0.1 -0.5
v 0.9 2.7 0.4
v 0.9 2.7 -0.5
v 0.9 2.8 0.4
v 0.9 2.8 -0.5
v 1 0.1 0.4
v 1 0.1 -0.5
v 1 2.7 0.4
v 1 2.7 -0.5
v -0.8 1.8 0.5
v -0.8 2.2 0.5
v -0.7 1.7 0.5
v -0.7 1.8 0.5
v -0.7 2.2 0.5
v -0.7 2.3 0.5
v -0.6 2.3 0.5
v -0.6 2.4 0.5
v -0.5 1.6 0.5
v -0.5 1.7 0.5
v 0.3 1.6 0.5
v 0.3 1.7 0.5
v 0.4 2.3 0.5
v 0.4 2.4 0.5
v 0.5 1.7 0.5
v 0.5 1.8 0.5
v 0.5 2.2 0.5
v 0.5 2.3 0.5
v 0.6 1.8 0.5
v 0.6 2.2 0.5
v -1.2 0.1 0.4
v -1.2 2.7 0.4
v -1.1 0 0.4
v -1.1 0.1 0.4
v -1.1 2.7 0.4
v -1.1 2.8 0.4
v -0.8 1.7 0.4
v -0.8 1.8 0.4
v -0.8 2.2 0.4
v -0.7 1.6 0.4
v -0.7 1.7 0.4
v -0.7 1.8 0.4
v -0.7 2.2 0.4
v -0.7 2.3 0.4
v -0.7 2.5 0.4
v -0.7 2.8 0.4
v -0.6 2.3 0.4
v -0.6 2.4 0.4
v -0.6 2.5 0.4
v -0.6 2.7 0.4
v -0.6 2.8 0.4
v -0.5 1.5 0.4
v -0.5 1.6 0.4
v -0.5 1.7 0.4
v 0.3 1.5 0.4
v 0.3 1.6 0.4
v 0.3 1.7 0.4
v 0.4 2.3 0.4
v 0.4 2.4 0.4
v 0.4 2.5 0.4
v 0.4 2.7 0.4
v 0.4 2.8 0.4
v 0.5 1.6 0.4
v 0.5 1.7 0.4
v 0.5 1.8 0.4
v 0.5 2.2 0.4
v 0.5 2.3 0.4
v 0.5 2.5 0.4
v 0.5 2.8 0.4
v 0.6 1.7 0.4
v 0.6 1.8 0.4
v 0.6 2.2 0.4
v 0.9 0 0.4
v 0.9 0.1 0.4
v 0.9 2.7 0.4
v 0.9 2.8 0.4
v 1 0.1 0.4
v 1 2.7 0.4
v -1.2 0.1 -0.5
v -1.2 2.7 -0.5
v -1.1 0 -0.5
v -1.1 0.1 -0.5
v -1.1 2.7 -0.5
v -1.1 2.8 -0.5
v -0.7 2.7 -0.5
v -0.7 2.8 -0.5
v 0.5 2.7 -0.5
v 0.5 2.8 -0.5
v 0.9 0 -0.5
v 0.9 0.1 -0.5
v 0.9 2.7 -0.5
v 0.9 2.8 -0.5
v 1 0.1 -0.5
v 1 2.7 -0.5
v -1.1 0 0.4
v 0.9 0 0.4
v -1.1 0 -0.5
v 0.9 0 -0.5
v -1.2 0.1 0.4
v -1.1 0.1 0.4
v 0.9 0.1 0.4
v 1 0.1 0.4
v -1.2 0.1 -0.5
v -1.1 0.1 -0.5
v 0.9 0.1 -0.5
v 1 0.1 -0.5
v -0.5 1.6 0.5
v 0.3 1.6 0.5
v -0.5 1.6 0.4
v 0.3 1.6 0.4
v -0.7 1.7 0.5
v -0.5 1.7 0.5
v 0.3 1.7 0.5
v 0.5 1.7 0.5
v -0.7 1.7 0.4
v -0.5 1.7 0.4
v 0.3 1.7 0.4
v 0.5 1.7 0.4
v -0.8 1.8 0.5
v -0.7 1.8 0.5
v 0.5 1.8 0.5
v 0.6 1.8 0.5
v -0.8 1.8 0.4
v -0.7 1.8 0.4
v 0.5 1.8 0.4
v 0.6 1.8 0.4
v -0.8 2.2 0.5
v -0.7 2.2 0.5
v 0.5 2.2 0.5
v 0.6 2.2 0.5
v -0.8 2.2 0.4
v -0.7 2.2 0.4
v 0.5 2.2 0.4
v 0.6 2.2 0.4
v -0.7 2.3 0.5
v -0.6 2.3 0.5
v 0.4 2.3 0.5
v 0.5 2.3 0.5
v -0.7 2.3 0.4
v -0.6 2.3 0.4
v 0.4 2.3 0.4
v 0.5 2.3 0.4
v -0.6 2.4 0.5
v 0.4 2.4 0.5
v -0.6 2.4 0.4
v 0.4 2.4 0.4
v -1.2 2.7 0.4
v -1.1 2.7 0.4
v 0.9 2.7 0.4
v 1 2.7 0.4
v -1.2 2.7 -0.5
v -1.1 2.7 -0.5
v 0.9 2.7 -0.5
v 1 2.7 -0.5
v -1.1 2.8 0.4
v -0.7 2.8 0.4
v -0.6 2.8 0.4
v 0.4 2.8 0.4
v 0.5 2.8 0.4
v 0.9 2.8 0.4
v -0.7 2.8 0.3
v -0.6 2.8 0.3
v 0.4 2.8 0.3
v 0.5 2.8 0.3
v -0.7 2.8 -0.4
v 0.5 2.8 -0.4
v -1.1 2.8 -0.5
v -0.7 2.8 -0.5
v 0.5 2.8 -0.5
v 0.9 2.8 -0.5

# faces
f 3/6/1 2/6/1 1/6/1
f 4/6/1 2/6/1 3/6/1
f 7/6/1 6/6/1 5/6/1
f 8/6/1 6/6/1 7/6/1
f 11/6/1 10/6/1 9/6/1
f 12/6/1 10/6/1 11/6/1
f 15/6/1 14/6/1 13/6/1
f 16/6/1 14/6/1 15/6/1
f 19/6/1 18/6/1 17/6/1
f 20/6/1 18/6/1 19/6/1
f 23/6/1 22/6/1 21/6/1
f 24/6/1 22/6/1 23/6/1
f 27/6/1 26/6/1 25/6/1
f 28/6/1 26/6/1 27/6/1
f 31/6/1 30/6/1 29/6/1
f 32/6/1 30/6/1 31/6/1
f 33/6/2 34/6/2 35/6/2
f 35/6/2 34/6/2 36/6/2
f 37/6/2 38/6/2 39/6/2
f 39/6/2 38/6/2 40/6/2
f 41/6/2 42/6/2 43/6/2
f 43/6/2 42/6/2 44/6/2
f 45/6/2 46/6/2 47/6/2
f 47/6/2 46/6/2 48/6/2
f 49/6/2 50/6/2 51/6/2
f 51/6/2 50/6/2 52/6/2
f 53/6/2 54/6/2 55/6/2
f 55/6/2 54/6/2 56/6/2
f 57/6/2 58/6/2 59/6/2
f 59/6/2 58/6/2 60/6/2
f 61/6/2 62/6/2 63/6/2
f 63/6/2 62/6/2 64/6/2
f 68/6/3 66/6/3 65/6/3
f 69/6/3 66/6/3 68/6/3
f 71/6/3 68/6/3 67/6/3
f 71/6/3 70/6/3 69/6/3
f 71/6/3 69/6/3 68/6/3
f 74/6/3 71/6/3 67/6/3
f 74/6/3 72/6/3 71/6/3
f 75/6/3 74/6/3 73/6/3
f 76/6/3 72/6/3 74/6/3
f 76/6/3 74/6/3 75/6/3
f 77/6/3 72/6/3 76/6/3
f 78/6/3 72/6/3 77/6/3
f 79/6/3 77/6/3 76/6/3
f 80/6/3 77/6/3 79/6/3
f 81/6/3 77/6/3 80/6/3
f 82/6/3 77/6/3 81/6/3
f 83/6/3 81/6/3 80/6/3
f 84/6/3 81/6/3 83/6/3
f 88/6/3 86/6/3 85/6/3
f 89/6/3 86/6/3 88/6/3
f 91/6/3 88/6/3 87/6/3
f 91/6/3 90/6/3 89/6/3
f 91/6/3 89/6/3 88/6/3
f 92/6/3 90/6/3 91/6/3
f 93/6/3 90/6/3 92/6/3
f 94/6/3 91/6/3 87/6/3
f 95/5/3 92/5/3 91/5/3
f 95/6/3 91/6/3 94/6/3
f 96/5/3 92/5/3 95/5/3
f 97/6/3 90/6/3 93/6/3
f 98/6/3 90/6/3 97/6/3
f 99/6/3 90/6/3 98/6/3
f 100/6/3 90/6/3 99/6/3
f 101/6/3 99/6/3 98/6/3
f 102/6/3 99/6/3 101/6/3
f 103/2/3 100/2/3 99/2/3
f 103/6/3 99/6/3 102/6/3
f 104/2/3 100/2/3 103/2/3
f 105/2/3 100/2/3 104/2/3
f 106/6/3 94/6/3 87/6/3
f 107/5/3 95/5/3 94/5/3
f 107/6/3 94/6/3 106/6/3
f 108/5/3 95/5/3 107/5/3
f 109/6/3 106/6/3 87/6/3
f 109/5/3 107/5/3 106/5/3
f 110/5/3 107/5/3 109/5/3
f 113/1/3 103/1/3 102/1/3
f 114/2/3 104/2/3 103/2/3
f 114/1/3 103/1/3 113/1/3
f 115/6/3 105/6/3 104/6/3
f 115/2/3 104/2/3 114/2/3
f 116/6/3 105/6/3 115/6/3
f 117/5/3 111/5/3 110/5/3
f 117/6/3 110/6/3 109/6/3
f 118/5/3 111/5/3 117/5/3
f 121/6/3 114/6/3 113/6/3
f 121/6/3 113/6/3 112/6/3
f 122/2/3 116/2/3 115/2/3
f 122/2/3 115/2/3 114/2/3
f 122/6/3 114/6/3 121/6/3
f 123/2/3 116/2/3 122/2/3
f 124/5/3 119/5/3 118/5/3
f 124/6/3 118/6/3 117/6/3
f 125/5/3 119/5/3 124/5/3
f 126/6/3 121/6/3 120/6/3
f 126/6/3 123/6/3 122/6/3
f 126/6/3 122/6/3 121/6/3
f 127/6/3 125/6/3 124/6/3
f 127/6/3 126/6/3 125/6/3
f 127/6/3 124/6/3 117/6/3
f 127/6/3 109/6/3 87/6/3
f 127/6/3 117/6/3 109/6/3
f 128/6/3 126/6/3 127/6/3
f 129/6/3 123/6/3 126/6/3
f 129/6/3 126/6/3 128/6/3
f 130/6/3 123/6/3 129/6/3
f 131/6/3 129/6/3 128/6/3
f 132/6/3 129/6/3 131/6/3
f 133/6/4 134/6/4 136/6/4
f 136/6/4 134/6/4 137/6/4
f 135/6/4 136/6/4 139/6/4
f 137/6/4 138/6/4 139/6/4
f 136/6/4 137/6/4 139/6/4
f 139/6/4 138/6/4 140/6/4
f 135/6/4 139/6/4 141/6/4
f 139/2/4 140/2/4 141/2/4
f 141/2/4 140/2/4 142/2/4
f 135/6/4 141/6/4 143/6/4
f 141/6/4 142/6/4 143/6/4
f 143/6/4 142/6/4 144/6/4
f 144/6/4 142/6/4 145/6/4
f 145/6/4 142/6/4 146/6/4
f 144/6/4 145/6/4 147/6/4
f 147/6/4 145/6/4 148/6/4
f 151/6/5 150/6/5 149/6/5
f 152/6/5 150/6/5 151/6/5
f 157/6/5 154/6/5 153/6/5
f 158/6/5 154/6/5 157/6/5
f 159/6/5 156/6/5 155/6/5
f 160/6/5 156/6/5 159/6/5
f 163/6/5 162/6/5 161/6/5
f 164/6/5 162/6/5 163/6/5
f 169/6/5 166/6/5 165/6/5
f 170/6/5 166/6/5 169/6/5
f 171/6/5 168/6/5 167/6/5
f 172/6/5 168/6/5 171/6/5
f 177/6/5 174/6/5 173/6/5
f 178/6/5 174/6/5 177/6/5
f 179/6/5 176/6/5 175/6/5
f 180/6/5 176/6/5 179/6/5
f 181/6/6 182/6/6 185/6/6
f 185/6/6 182/6/6 186/6/6
f 183/6/6 184/6/6 187/6/6
f 187/6/6 184/6/6 188/6/6
f 189/6/6 190/6/6 193/6/6
f 193/6/6 190/6/6 194/6/6
f 191/6/6 192/6/6 195/6/6
f 195/6/6 192/6/6 196/6/6
f 197/6/6 198/6/6 199/6/6
f 199/6/6 198/6/6 200/6/6
f 201/6/6 202/6/6 205/6/6
f 205/6/6 202/6/6 206/6/6
f 203/6/6 204/6/6 207/6/6
f 207/6/6 204/6/6 208/6/6
f 209/6/6 210/6/6 215/6/6
f 210/2/6 211/2/6 215/2/6
f 211/6/6 212/6/6 216/6/6
f 215/2/6 211/2/6 216/2/6
f 212/2/6 213/2/6 217/2/6
f 216/6/6 212/6/6 217/6/6
f 213/6/6 214/6/6 218/6/6
f 217/2/6 213/2/6 218/2/6
f 216/6/6 217/6/6 219/6/6
f 215/6/6 216/6/6 219/6/6
f 217/6/6 218/6/6 219/6/6
f 209/6/6 215/6/6 219/6/6
f 218/6/6 214/6/6 220/6/6
f 219/6/6 218/6/6 220/6/6
f 209/6/6 219/6/6 221/6/6
f 219/2/6 220/2/6 222/2/6
f 221/6/6 219/6/6 222/6/6
f 220/6/6 214/6/6 223/6/6
f 222/2/6 220/2/6 223/2/6
f 223/6/6 214/6/6 224/6/6
