# MagicaVoxel @ Ephtracy

# group
o 

# material
mtllib Girl-3.mtl
usemtl palette

# normals
vn -1 0 0
vn 1 0 0
vn 0 0 1
vn 0 0 -1
vn 0 -1 0
vn 0 1 0

# texcoords
vt 0.236328 0.5
vt 0.275391 0.5
vt 0.759766 0.5
vt 0.775391 0.5
vt 0.822266 0.5
vt 0.912109 0.5
vt 0.958984 0.5
vt 0.962891 0.5

# verts
v -0.4 1.5 0.1
v -0.4 1.5 -0.5
v -0.4 1.6 0.1
v -0.4 1.6 -0.5
v -0.3 0 0.5
v -0.3 0 -0.7
v -0.3 0.1 0.6
v -0.3 0.1 0.5
v -0.3 0.1 0.4
v -0.3 0.1 -0.2
v -0.3 0.2 0.4
v -0.3 0.2 -0.2
v -0.3 0.2 -0.5
v -0.3 0.3 -0.2
v -0.3 0.3 -0.5
v -0.3 0.3 -0.6
v -0.3 0.3 -0.7
v -0.3 0.4 0.6
v -0.3 0.4 0.4
v -0.3 0.5 0.4
v -0.3 0.5 -0.6
v -0.3 1.5 0.2
v -0.3 1.5 0.1
v -0.3 1.5 -0.5
v -0.3 1.5 -0.6
v -0.3 1.6 0.2
v -0.3 1.6 0.1
v -0.3 1.6 -0.5
v -0.3 1.6 -0.6
v -0.3 2.3 0.1
v -0.3 2.3 -0.5
v -0.2 0 0.7
v -0.2 0 0.5
v -0.2 0.1 0.6
v -0.2 0.1 0.5
v -0.2 0.3 0.7
v -0.2 0.3 0.6
v -0.2 0.4 0.5
v -0.2 0.4 0.4
v -0.2 0.5 0.5
v -0.2 0.5 0.4
v -0.2 0.5 0
v -0.2 0.5 -0.4
v -0.2 1.2 0
v -0.2 1.2 -0.4
v -0.2 1.3 0.1
v -0.2 1.3 0
v -0.2 1.4 0.2
v -0.2 1.4 0.1
v -0.2 1.5 0.2
v -0.2 1.5 0.1
v -0.2 1.5 -0.4
v -0.2 1.6 0.2
v -0.2 1.6 0.1
v -0.2 1.7 0.2
v -0.2 1.7 0.1
v -0.1 1.3 0.2
v -0.1 1.3 0.1
v -0.1 1.4 0.2
v -0.1 1.4 0.1
v 0.3 1.3 0.2
v 0.3 1.3 0.1
v 0.3 1.4 0.2
v 0.3 1.4 0.1
v 0.4 0 0.7
v 0.4 0 0.5
v 0.4 0.1 0.6
v 0.4 0.1 0.5
v 0.4 0.3 0.7
v 0.4 0.3 0.6
v 0.4 0.4 0.5
v 0.4 0.4 0.4
v 0.4 0.5 0.5
v 0.4 0.5 0.4
v 0.4 0.5 0
v 0.4 0.5 -0.4
v 0.4 1.2 0
v 0.4 1.2 -0.4
v 0.4 1.3 0.1
v 0.4 1.3 0
v 0.4 1.4 0.2
v 0.4 1.4 0.1
v 0.4 1.5 0.2
v 0.4 1.5 0.1
v 0.4 1.5 -0.4
v 0.4 1.6 0.2
v 0.4 1.6 0.1
v 0.4 1.7 0.2
v 0.4 1.7 0.1
v 0.5 0 0.5
v 0.5 0 -0.7
v 0.5 0.1 0.6
v 0.5 0.1 0.5
v 0.5 0.3 -0.6
v 0.5 0.3 -0.7
v 0.5 0.4 0.6
v 0.5 0.4 0.4
v 0.5 0.5 0.4
v 0.5 0.5 -0.6
v 0.5 1.5 0.2
v 0.5 1.5 0.1
v 0.5 1.5 -0.5
v 0.5 1.5 -0.6
v 0.5 1.6 0.2
v 0.5 1.6 0.1
v 0.5 1.6 -0.5
v 0.5 1.6 -0.6
v 0.5 2.3 0.1
v 0.5 2.3 -0.5
v 0.6 1.5 0.1
v 0.6 1.5 -0.5
v 0.6 1.6 0.1
v 0.6 1.6 -0.5
v -0.2 0 0.7
v -0.2 0.3 0.7
v 0.4 0 0.7
v 0.4 0.3 0.7
v -0.3 0.1 0.6
v -0.3 0.4 0.6
v -0.2 0.1 0.6
v -0.2 0.3 0.6
v 0 0.3 0.6
v 0 0.4 0.6
v 0.2 0.3 0.6
v 0.2 0.4 0.6
v 0.4 0.1 0.6
v 0.4 0.3 0.6
v 0.5 0.1 0.6
v 0.5 0.4 0.6
v -0.3 0 0.5
v -0.3 0.1 0.5
v -0.2 0 0.5
v -0.2 0.1 0.5
v -0.2 0.4 0.5
v -0.2 0.5 0.5
v 0 0.4 0.5
v 0 0.5 0.5
v 0.2 0.4 0.5
v 0.2 0.5 0.5
v 0.4 0 0.5
v 0.4 0.1 0.5
v 0.4 0.4 0.5
v 0.4 0.5 0.5
v 0.5 0 0.5
v 0.5 0.1 0.5
v -0.3 0.4 0.4
v -0.3 0.5 0.4
v -0.2 0.4 0.4
v -0.2 0.5 0.4
v 0.4 0.4 0.4
v 0.4 0.5 0.4
v 0.5 0.4 0.4
v 0.5 0.5 0.4
v -0.3 1.5 0.2
v -0.3 1.6 0.2
v -0.2 1.4 0.2
v -0.2 1.5 0.2
v -0.2 1.6 0.2
v -0.2 1.7 0.2
v -0.1 1.3 0.2
v -0.1 1.4 0.2
v 0 1.3 0.2
v 0 1.7 0.2
v 0.2 1.3 0.2
v 0.2 1.7 0.2
v 0.3 1.3 0.2
v 0.3 1.4 0.2
v 0.4 1.4 0.2
v 0.4 1.5 0.2
v 0.4 1.6 0.2
v 0.4 1.7 0.2
v 0.5 1.5 0.2
v 0.5 1.6 0.2
v -0.4 1.5 0.1
v -0.4 1.6 0.1
v -0.3 1.5 0.1
v -0.3 1.6 0.1
v -0.3 2.3 0.1
v -0.2 1.3 0.1
v -0.2 1.4 0.1
v -0.2 1.6 0.1
v -0.2 1.7 0.1
v -0.1 1.3 0.1
v -0.1 1.4 0.1
v 0 1.7 0.1
v 0.2 1.7 0.1
v 0.3 1.3 0.1
v 0.3 1.4 0.1
v 0.4 1.3 0.1
v 0.4 1.4 0.1
v 0.4 1.6 0.1
v 0.4 1.7 0.1
v 0.5 1.5 0.1
v 0.5 1.6 0.1
v 0.5 2.3 0.1
v 0.6 1.5 0.1
v 0.6 1.6 0.1
v -0.2 0.5 0
v -0.2 1.2 0
v -0.2 1.3 0
v 0.4 0.5 0
v 0.4 1.2 0
v 0.4 1.3 0
v -0.2 0.5 -0.4
v -0.2 1.2 -0.4
v -0.2 1.5 -0.4
v 0.4 0.5 -0.4
v 0.4 1.2 -0.4
v 0.4 1.5 -0.4
v -0.4 1.5 -0.5
v -0.4 1.6 -0.5
v -0.3 1.5 -0.5
v -0.3 1.6 -0.5
v -0.3 2.3 -0.5
v 0 1.6 -0.5
v 0.2 1.6 -0.5
v 0.5 1.5 -0.5
v 0.5 1.6 -0.5
v 0.5 2.3 -0.5
v 0.6 1.5 -0.5
v 0.6 1.6 -0.5
v -0.3 0.3 -0.6
v -0.3 0.5 -0.6
v -0.3 1.5 -0.6
v -0.3 1.6 -0.6
v 0 0.3 -0.6
v 0 0.5 -0.6
v 0 1.5 -0.6
v 0 1.6 -0.6
v 0.2 0.3 -0.6
v 0.2 0.5 -0.6
v 0.2 1.5 -0.6
v 0.2 1.6 -0.6
v 0.5 0.3 -0.6
v 0.5 0.5 -0.6
v 0.5 1.5 -0.6
v 0.5 1.6 -0.6
v -0.3 0 -0.7
v -0.3 0.3 -0.7
v 0 0.2 -0.7
v 0 0.3 -0.7
v 0.2 0.2 -0.7
v 0.2 0.3 -0.7
v 0.5 0 -0.7
v 0.5 0.3 -0.7
v -0.2 0 0.7
v 0.4 0 0.7
v -0.3 0 0.5
v -0.2 0 0.5
v 0.4 0 0.5
v 0.5 0 0.5
v -0.3 0 -0.7
v 0.5 0 -0.7
v -0.3 0.1 0.6
v -0.2 0.1 0.6
v 0.4 0.1 0.6
v 0.5 0.1 0.6
v -0.3 0.1 0.5
v -0.2 0.1 0.5
v 0.4 0.1 0.5
v 0.5 0.1 0.5
v -0.1 1.3 0.2
v 0 1.3 0.2
v 0.2 1.3 0.2
v 0.3 1.3 0.2
v -0.2 1.3 0.1
v -0.1 1.3 0.1
v 0 1.3 0.1
v 0.2 1.3 0.1
v 0.3 1.3 0.1
v 0.4 1.3 0.1
v -0.2 1.3 0
v 0.4 1.3 0
v -0.2 1.4 0.2
v -0.1 1.4 0.2
v 0.3 1.4 0.2
v 0.4 1.4 0.2
v -0.2 1.4 0.1
v -0.1 1.4 0.1
v 0.3 1.4 0.1
v 0.4 1.4 0.1
v -0.3 1.5 0.2
v -0.2 1.5 0.2
v 0.4 1.5 0.2
v 0.5 1.5 0.2
v -0.4 1.5 0.1
v -0.3 1.5 0.1
v -0.2 1.5 0.1
v 0.4 1.5 0.1
v 0.5 1.5 0.1
v 0.6 1.5 0.1
v -0.2 1.5 -0.4
v 0.4 1.5 -0.4
v -0.4 1.5 -0.5
v -0.3 1.5 -0.5
v 0 1.5 -0.5
v 0.2 1.5 -0.5
v 0.5 1.5 -0.5
v 0.6 1.5 -0.5
v -0.3 1.5 -0.6
v 0 1.5 -0.6
v 0.2 1.5 -0.6
v 0.5 1.5 -0.6
v -0.2 0.3 0.7
v 0.4 0.3 0.7
v -0.2 0.3 0.6
v 0 0.3 0.6
v 0.2 0.3 0.6
v 0.4 0.3 0.6
v -0.3 0.3 -0.6
v 0 0.3 -0.6
v 0.2 0.3 -0.6
v 0.5 0.3 -0.6
v -0.3 0.3 -0.7
v 0 0.3 -0.7
v 0.2 0.3 -0.7
v 0.5 0.3 -0.7
v -0.3 0.4 0.6
v 0 0.4 0.6
v 0.2 0.4 0.6
v 0.5 0.4 0.6
v -0.2 0.4 0.5
v 0 0.4 0.5
v 0.2 0.4 0.5
v 0.4 0.4 0.5
v -0.3 0.4 0.4
v -0.2 0.4 0.4
v 0.4 0.4 0.4
v 0.5 0.4 0.4
v -0.2 0.5 0.5
v 0 0.5 0.5
v 0.2 0.5 0.5
v 0.4 0.5 0.5
v -0.3 0.5 0.4
v -0.2 0.5 0.4
v 0.4 0.5 0.4
v 0.5 0.5 0.4
v 0 0.5 0.1
v 0.2 0.5 0.1
v -0.2 0.5 0
v 0.4 0.5 0
v -0.2 0.5 -0.4
v 0.4 0.5 -0.4
v 0 0.5 -0.5
v 0.2 0.5 -0.5
v -0.3 0.5 -0.6
v 0 0.5 -0.6
v 0.2 0.5 -0.6
v 0.5 0.5 -0.6
v -0.3 1.6 0.2
v -0.2 1.6 0.2
v 0.4 1.6 0.2
v 0.5 1.6 0.2
v -0.4 1.6 0.1
v -0.3 1.6 0.1
v -0.2 1.6 0.1
v 0.4 1.6 0.1
v 0.5 1.6 0.1
v 0.6 1.6 0.1
v -0.4 1.6 -0.5
v -0.3 1.6 -0.5
v 0 1.6 -0.5
v 0.2 1.6 -0.5
v 0.5 1.6 -0.5
v 0.6 1.6 -0.5
v -0.3 1.6 -0.6
v 0 1.6 -0.6
v 0.2 1.6 -0.6
v 0.5 1.6 -0.6
v -0.2 1.7 0.2
v 0 1.7 0.2
v 0.2 1.7 0.2
v 0.4 1.7 0.2
v -0.2 1.7 0.1
v 0 1.7 0.1
v 0.2 1.7 0.1
v 0.4 1.7 0.1
v -0.3 2.3 0.1
v 0.5 2.3 0.1
v -0.3 2.3 -0.5
v 0.5 2.3 -0.5

# faces
f 3/7/1 2/7/1 1/7/1
f 4/7/1 2/7/1 3/7/1
f 8/7/1 6/7/1 5/7/1
f 9/7/1 6/7/1 8/7/1
f 10/7/1 6/7/1 9/7/1
f 11/7/1 8/7/1 7/7/1
f 11/7/1 9/7/1 8/7/1
f 11/6/1 10/6/1 9/6/1
f 12/7/1 6/7/1 10/7/1
f 12/6/1 10/6/1 11/6/1
f 13/7/1 6/7/1 12/7/1
f 14/7/1 12/7/1 11/7/1
f 14/6/1 13/6/1 12/6/1
f 15/7/1 6/7/1 13/7/1
f 15/6/1 13/6/1 14/6/1
f 16/7/1 6/7/1 15/7/1
f 17/7/1 6/7/1 16/7/1
f 18/7/1 11/7/1 7/7/1
f 18/7/1 14/7/1 11/7/1
f 18/7/1 16/7/1 15/7/1
f 18/7/1 15/7/1 14/7/1
f 19/7/1 16/7/1 18/7/1
f 20/7/1 16/7/1 19/7/1
f 21/7/1 16/7/1 20/7/1
f 26/8/1 23/8/1 22/8/1
f 27/8/1 23/8/1 26/8/1
f 28/8/1 25/8/1 24/8/1
f 29/8/1 25/8/1 28/8/1
f 30/5/1 28/5/1 27/5/1
f 31/5/1 28/5/1 30/5/1
f 34/7/1 33/7/1 32/7/1
f 35/7/1 33/7/1 34/7/1
f 36/7/1 34/7/1 32/7/1
f 37/7/1 34/7/1 36/7/1
f 40/7/1 39/7/1 38/7/1
f 41/7/1 39/7/1 40/7/1
f 44/1/1 43/1/1 42/1/1
f 45/1/1 43/1/1 44/1/1
f 47/2/1 45/2/1 44/2/1
f 49/2/1 47/2/1 46/2/1
f 50/8/1 49/8/1 48/8/1
f 51/2/1 47/2/1 49/2/1
f 51/8/1 49/8/1 50/8/1
f 52/2/1 45/2/1 47/2/1
f 52/2/1 47/2/1 51/2/1
f 55/8/1 54/8/1 53/8/1
f 56/8/1 54/8/1 55/8/1
f 59/8/1 58/8/1 57/8/1
f 60/8/1 58/8/1 59/8/1
f 61/8/2 62/8/2 63/8/2
f 63/8/2 62/8/2 64/8/2
f 65/7/2 66/7/2 67/7/2
f 67/7/2 66/7/2 68/7/2
f 65/7/2 67/7/2 69/7/2
f 69/7/2 67/7/2 70/7/2
f 71/7/2 72/7/2 73/7/2
f 73/7/2 72/7/2 74/7/2
f 75/1/2 76/1/2 77/1/2
f 77/1/2 76/1/2 78/1/2
f 77/2/2 78/2/2 80/2/2
f 79/2/2 80/2/2 82/2/2
f 81/8/2 82/8/2 83/8/2
f 82/2/2 80/2/2 84/2/2
f 83/8/2 82/8/2 84/8/2
f 80/2/2 78/2/2 85/2/2
f 84/2/2 80/2/2 85/2/2
f 86/8/2 87/8/2 88/8/2
f 88/8/2 87/8/2 89/8/2
f 90/7/2 91/7/2 93/7/2
f 93/7/2 91/7/2 94/7/2
f 92/7/2 93/7/2 94/7/2
f 94/7/2 91/7/2 95/7/2
f 92/7/2 94/7/2 96/7/2
f 96/7/2 94/7/2 97/7/2
f 97/7/2 94/7/2 98/7/2
f 98/7/2 94/7/2 99/7/2
f 100/8/2 101/8/2 104/8/2
f 104/8/2 101/8/2 105/8/2
f 102/8/2 103/8/2 106/8/2
f 106/8/2 103/8/2 107/8/2
f 105/5/2 106/5/2 108/5/2
f 108/5/2 106/5/2 109/5/2
f 110/8/2 111/8/2 112/8/2
f 112/8/2 111/8/2 113/8/2
f 116/7/3 115/7/3 114/7/3
f 117/7/3 115/7/3 116/7/3
f 120/7/3 119/7/3 118/7/3
f 121/7/3 119/7/3 120/7/3
f 122/7/3 119/7/3 121/7/3
f 123/7/3 119/7/3 122/7/3
f 124/3/3 123/3/3 122/3/3
f 125/3/3 123/3/3 124/3/3
f 127/7/3 125/7/3 124/7/3
f 128/7/3 127/7/3 126/7/3
f 129/7/3 125/7/3 127/7/3
f 129/7/3 127/7/3 128/7/3
f 132/7/3 131/7/3 130/7/3
f 133/7/3 131/7/3 132/7/3
f 136/7/3 135/7/3 134/7/3
f 137/7/3 135/7/3 136/7/3
f 138/3/3 137/3/3 136/3/3
f 139/3/3 137/3/3 138/3/3
f 142/7/3 139/7/3 138/7/3
f 143/7/3 139/7/3 142/7/3
f 144/7/3 141/7/3 140/7/3
f 145/7/3 141/7/3 144/7/3
f 148/7/3 147/7/3 146/7/3
f 149/7/3 147/7/3 148/7/3
f 152/7/3 151/7/3 150/7/3
f 153/7/3 151/7/3 152/7/3
f 157/8/3 155/8/3 154/8/3
f 158/8/3 155/8/3 157/8/3
f 161/8/3 157/8/3 156/8/3
f 161/8/3 159/8/3 158/8/3
f 161/8/3 158/8/3 157/8/3
f 162/8/3 161/8/3 160/8/3
f 163/8/3 159/8/3 161/8/3
f 163/8/3 161/8/3 162/8/3
f 164/3/3 163/3/3 162/3/3
f 165/3/3 163/3/3 164/3/3
f 166/8/3 165/8/3 164/8/3
f 167/8/3 165/8/3 166/8/3
f 168/8/3 165/8/3 167/8/3
f 169/8/3 165/8/3 168/8/3
f 170/8/3 165/8/3 169/8/3
f 171/8/3 165/8/3 170/8/3
f 172/8/3 170/8/3 169/8/3
f 173/8/3 170/8/3 172/8/3
f 176/7/3 175/7/3 174/7/3
f 177/7/3 175/7/3 176/7/3
f 181/5/3 178/5/3 177/5/3
f 182/5/3 178/5/3 181/5/3
f 183/2/3 180/2/3 179/2/3
f 184/2/3 180/2/3 183/2/3
f 185/5/3 178/5/3 182/5/3
f 186/5/3 178/5/3 185/5/3
f 189/2/3 188/2/3 187/2/3
f 190/2/3 188/2/3 189/2/3
f 192/5/3 178/5/3 186/5/3
f 194/5/3 192/5/3 191/5/3
f 195/5/3 178/5/3 192/5/3
f 195/5/3 192/5/3 194/5/3
f 196/8/3 194/8/3 193/8/3
f 197/8/3 194/8/3 196/8/3
f 201/1/3 199/1/3 198/1/3
f 202/2/3 200/2/3 199/2/3
f 202/1/3 199/1/3 201/1/3
f 203/2/3 200/2/3 202/2/3
f 204/1/4 205/1/4 207/1/4
f 205/2/4 206/2/4 208/2/4
f 207/1/4 205/1/4 208/1/4
f 208/2/4 206/2/4 209/2/4
f 210/7/4 211/7/4 212/7/4
f 212/7/4 211/7/4 213/7/4
f 213/5/4 214/5/4 215/5/4
f 215/5/4 214/5/4 216/5/4
f 216/5/4 214/5/4 218/5/4
f 218/5/4 214/5/4 219/5/4
f 217/8/4 218/8/4 220/8/4
f 220/8/4 218/8/4 221/8/4
f 222/7/4 223/7/4 226/7/4
f 226/7/4 223/7/4 227/7/4
f 224/8/4 225/8/4 228/8/4
f 228/8/4 225/8/4 229/8/4
f 226/3/4 227/3/4 230/3/4
f 230/3/4 227/3/4 231/3/4
f 228/3/4 229/3/4 232/3/4
f 232/3/4 229/3/4 233/3/4
f 230/7/4 231/7/4 234/7/4
f 234/7/4 231/7/4 235/7/4
f 232/8/4 233/8/4 236/8/4
f 236/8/4 233/8/4 237/8/4
f 238/7/4 239/7/4 240/7/4
f 240/7/4 239/7/4 241/7/4
f 238/7/4 240/7/4 242/7/4
f 240/3/4 241/3/4 242/3/4
f 242/3/4 241/3/4 243/3/4
f 238/7/4 242/7/4 244/7/4
f 242/7/4 243/7/4 244/7/4
f 244/7/4 243/7/4 245/7/4
f 249/7/5 247/7/5 246/7/5
f 250/7/5 247/7/5 249/7/5
f 252/7/5 249/7/5 248/7/5
f 252/7/5 251/7/5 250/7/5
f 252/7/5 250/7/5 249/7/5
f 253/7/5 251/7/5 252/7/5
f 258/7/5 255/7/5 254/7/5
f 259/7/5 255/7/5 258/7/5
f 260/7/5 257/7/5 256/7/5
f 261/7/5 257/7/5 260/7/5
f 267/8/5 263/8/5 262/8/5
f 268/3/5 264/3/5 263/3/5
f 268/8/5 263/8/5 267/8/5
f 269/8/5 265/8/5 264/8/5
f 269/3/5 264/3/5 268/3/5
f 270/8/5 265/8/5 269/8/5
f 272/2/5 268/2/5 267/2/5
f 272/2/5 271/2/5 270/2/5
f 272/2/5 270/2/5 269/2/5
f 272/2/5 269/2/5 268/2/5
f 272/2/5 267/2/5 266/2/5
f 273/2/5 271/2/5 272/2/5
f 278/8/5 275/8/5 274/8/5
f 279/8/5 275/8/5 278/8/5
f 280/8/5 277/8/5 276/8/5
f 281/8/5 277/8/5 280/8/5
f 287/8/5 283/8/5 282/8/5
f 288/8/5 283/8/5 287/8/5
f 289/8/5 285/8/5 284/8/5
f 290/8/5 285/8/5 289/8/5
f 292/2/5 288/2/5 287/2/5
f 293/2/5 290/2/5 289/2/5
f 294/7/5 287/7/5 286/7/5
f 295/2/5 293/2/5 292/2/5
f 295/7/5 287/7/5 294/7/5
f 295/2/5 292/2/5 287/2/5
f 296/2/5 293/2/5 295/2/5
f 297/2/5 293/2/5 296/2/5
f 298/8/5 291/8/5 290/8/5
f 298/2/5 293/2/5 297/2/5
f 298/2/5 290/2/5 293/2/5
f 299/8/5 291/8/5 298/8/5
f 300/8/5 296/8/5 295/8/5
f 301/3/5 297/3/5 296/3/5
f 301/8/5 296/8/5 300/8/5
f 302/8/5 298/8/5 297/8/5
f 302/3/5 297/3/5 301/3/5
f 303/8/5 298/8/5 302/8/5
f 304/7/6 305/7/6 306/7/6
f 306/7/6 305/7/6 307/7/6
f 307/7/6 305/7/6 308/7/6
f 308/7/6 305/7/6 309/7/6
f 310/7/6 311/7/6 314/7/6
f 311/3/6 312/3/6 315/3/6
f 314/7/6 311/7/6 315/7/6
f 312/7/6 313/7/6 316/7/6
f 315/3/6 312/3/6 316/3/6
f 316/7/6 313/7/6 317/7/6
f 318/7/6 319/7/6 322/7/6
f 319/3/6 320/3/6 323/3/6
f 322/7/6 319/7/6 323/7/6
f 320/7/6 321/7/6 324/7/6
f 323/3/6 320/3/6 324/3/6
f 324/7/6 321/7/6 325/7/6
f 318/7/6 322/7/6 326/7/6
f 326/7/6 322/7/6 327/7/6
f 325/7/6 321/7/6 328/7/6
f 328/7/6 321/7/6 329/7/6
f 330/7/6 331/7/6 335/7/6
f 332/7/6 333/7/6 336/7/6
f 334/7/6 335/7/6 338/7/6
f 331/3/6 332/3/6 338/3/6
f 335/7/6 331/7/6 338/7/6
f 336/7/6 337/7/6 339/7/6
f 338/3/6 332/3/6 339/3/6
f 332/7/6 336/7/6 339/7/6
f 334/7/6 338/7/6 340/7/6
f 338/7/6 339/7/6 340/7/6
f 339/7/6 337/7/6 341/7/6
f 340/7/6 339/7/6 341/7/6
f 334/7/6 340/7/6 342/7/6
f 341/7/6 337/7/6 343/7/6
f 342/7/6 343/7/6 344/7/6
f 344/7/6 343/7/6 345/7/6
f 334/7/6 342/7/6 346/7/6
f 342/7/6 344/7/6 346/7/6
f 344/3/6 345/3/6 347/3/6
f 346/7/6 344/7/6 347/7/6
f 345/7/6 343/7/6 348/7/6
f 347/3/6 345/3/6 348/3/6
f 343/7/6 337/7/6 349/7/6
f 348/7/6 343/7/6 349/7/6
f 350/8/6 351/8/6 355/8/6
f 355/8/6 351/8/6 356/8/6
f 352/8/6 353/8/6 357/8/6
f 357/8/6 353/8/6 358/8/6
f 354/7/6 355/7/6 360/7/6
f 360/7/6 355/7/6 361/7/6
f 358/8/6 359/8/6 364/8/6
f 364/8/6 359/8/6 365/8/6
f 361/8/6 362/8/6 366/8/6
f 362/3/6 363/3/6 367/3/6
f 366/8/6 362/8/6 367/8/6
f 363/8/6 364/8/6 368/8/6
f 367/3/6 363/3/6 368/3/6
f 368/8/6 364/8/6 369/8/6
f 370/8/6 371/8/6 374/8/6
f 371/3/6 372/3/6 375/3/6
f 374/8/6 371/8/6 375/8/6
f 372/8/6 373/8/6 376/8/6
f 375/3/6 372/3/6 376/3/6
f 376/8/6 373/8/6 377/8/6
f 378/5/6 379/5/6 380/5/6
f 380/5/6 379/5/6 381/5/6
